G04 #@! TF.GenerationSoftware,KiCad,Pcbnew,5.0.2+dfsg1-1*
G04 #@! TF.CreationDate,2021-08-23T09:22:29-10:00*
G04 #@! TF.ProjectId,watchy-scd40,77617463-6879-42d7-9363-6434302e6b69,rev?*
G04 #@! TF.SameCoordinates,Original*
G04 #@! TF.FileFunction,Copper,L1,Top*
G04 #@! TF.FilePolarity,Positive*
%FSLAX46Y46*%
G04 Gerber Fmt 4.6, Leading zero omitted, Abs format (unit mm)*
G04 Created by KiCad (PCBNEW 5.0.2+dfsg1-1) date Mon 23 Aug 2021 09:22:29 AM HST*
%MOMM*%
%LPD*%
G01*
G04 APERTURE LIST*
G04 #@! TA.AperFunction,SMDPad,CuDef*
%ADD10R,1.000000X2.000000*%
G04 #@! TD*
G04 #@! TA.AperFunction,Conductor*
%ADD11C,0.100000*%
G04 #@! TD*
G04 #@! TA.AperFunction,SMDPad,CuDef*
%ADD12C,4.800000*%
G04 #@! TD*
G04 #@! TA.AperFunction,SMDPad,CuDef*
%ADD13R,0.800000X0.800000*%
G04 #@! TD*
G04 #@! TA.AperFunction,SMDPad,CuDef*
%ADD14R,1.500000X0.800000*%
G04 #@! TD*
G04 #@! TA.AperFunction,SMDPad,CuDef*
%ADD15R,0.800000X1.500000*%
G04 #@! TD*
G04 #@! TA.AperFunction,SMDPad,CuDef*
%ADD16C,1.150000*%
G04 #@! TD*
G04 #@! TA.AperFunction,SMDPad,CuDef*
%ADD17R,0.650000X1.060000*%
G04 #@! TD*
G04 #@! TA.AperFunction,ViaPad*
%ADD18C,0.482600*%
G04 #@! TD*
G04 #@! TA.AperFunction,Conductor*
%ADD19C,0.508000*%
G04 #@! TD*
G04 #@! TA.AperFunction,Conductor*
%ADD20C,0.381000*%
G04 #@! TD*
G04 #@! TA.AperFunction,Conductor*
%ADD21C,0.152400*%
G04 #@! TD*
G04 #@! TA.AperFunction,Conductor*
%ADD22C,0.254000*%
G04 #@! TD*
G04 APERTURE END LIST*
D10*
G04 #@! TO.P,TP5,1*
G04 #@! TO.N,GND*
X145542000Y-103632000D03*
G04 #@! TD*
G04 #@! TO.P,TP4,1*
G04 #@! TO.N,SDA*
X154178000Y-103632000D03*
G04 #@! TD*
G04 #@! TO.P,TP3,1*
G04 #@! TO.N,SCL*
X152146000Y-103632000D03*
G04 #@! TD*
G04 #@! TO.P,TP2,1*
G04 #@! TO.N,GPIO0*
X149860000Y-103632000D03*
G04 #@! TD*
G04 #@! TO.P,TP1,1*
G04 #@! TO.N,Vin*
X147574000Y-103632000D03*
G04 #@! TD*
D11*
G04 #@! TO.N,GND*
G04 #@! TO.C,U1*
G36*
X152091762Y-90700578D02*
X152103411Y-90702306D01*
X152114834Y-90705167D01*
X152125922Y-90709134D01*
X152136568Y-90714169D01*
X152146668Y-90720224D01*
X152156127Y-90727239D01*
X152164853Y-90735147D01*
X152172761Y-90743873D01*
X152179776Y-90753332D01*
X152185831Y-90763432D01*
X152190866Y-90774078D01*
X152194833Y-90785166D01*
X152197694Y-90796589D01*
X152199422Y-90808238D01*
X152200000Y-90820000D01*
X152200000Y-95380000D01*
X152199422Y-95391762D01*
X152197694Y-95403411D01*
X152194833Y-95414834D01*
X152190866Y-95425922D01*
X152185831Y-95436568D01*
X152179776Y-95446668D01*
X152172761Y-95456127D01*
X152164853Y-95464853D01*
X152156127Y-95472761D01*
X152146668Y-95479776D01*
X152136568Y-95485831D01*
X152125922Y-95490866D01*
X152114834Y-95494833D01*
X152103411Y-95497694D01*
X152091762Y-95499422D01*
X152080000Y-95500000D01*
X147520000Y-95500000D01*
X147508238Y-95499422D01*
X147496589Y-95497694D01*
X147485166Y-95494833D01*
X147474078Y-95490866D01*
X147463432Y-95485831D01*
X147453332Y-95479776D01*
X147443873Y-95472761D01*
X147435147Y-95464853D01*
X147427239Y-95456127D01*
X147420224Y-95446668D01*
X147414169Y-95436568D01*
X147409134Y-95425922D01*
X147405167Y-95414834D01*
X147402306Y-95403411D01*
X147400578Y-95391762D01*
X147400000Y-95380000D01*
X147400000Y-90820000D01*
X147400578Y-90808238D01*
X147402306Y-90796589D01*
X147405167Y-90785166D01*
X147409134Y-90774078D01*
X147414169Y-90763432D01*
X147420224Y-90753332D01*
X147427239Y-90743873D01*
X147435147Y-90735147D01*
X147443873Y-90727239D01*
X147453332Y-90720224D01*
X147463432Y-90714169D01*
X147474078Y-90709134D01*
X147485166Y-90705167D01*
X147496589Y-90702306D01*
X147508238Y-90700578D01*
X147520000Y-90700000D01*
X152080000Y-90700000D01*
X152091762Y-90700578D01*
X152091762Y-90700578D01*
G37*
D12*
G04 #@! TD*
G04 #@! TO.P,U1,21*
G04 #@! TO.N,GND*
X149800000Y-93100000D03*
D13*
G04 #@! TO.P,U1,1*
G04 #@! TO.N,N/C*
X145800000Y-90600000D03*
D14*
G04 #@! TO.P,U1,2*
X145800000Y-91850000D03*
G04 #@! TO.P,U1,3*
X145800000Y-93100000D03*
G04 #@! TO.P,U1,4*
X145800000Y-94350000D03*
G04 #@! TO.P,U1,5*
X145800000Y-95600000D03*
D15*
G04 #@! TO.P,U1,6*
G04 #@! TO.N,GND*
X147300000Y-97100000D03*
G04 #@! TO.P,U1,7*
G04 #@! TO.N,Net-(C3-Pad1)*
X148550000Y-97100000D03*
G04 #@! TO.P,U1,8*
G04 #@! TO.N,N/C*
X149800000Y-97100000D03*
G04 #@! TO.P,U1,9*
G04 #@! TO.N,SCL*
X151050000Y-97100000D03*
G04 #@! TO.P,U1,10*
G04 #@! TO.N,SDA*
X152300000Y-97100000D03*
D14*
G04 #@! TO.P,U1,11*
G04 #@! TO.N,N/C*
X153800000Y-95600000D03*
G04 #@! TO.P,U1,12*
X153800000Y-94350000D03*
G04 #@! TO.P,U1,13*
X153800000Y-93100000D03*
G04 #@! TO.P,U1,14*
X153800000Y-91850000D03*
G04 #@! TO.P,U1,15*
X153800000Y-90600000D03*
D15*
G04 #@! TO.P,U1,16*
X152300000Y-89100000D03*
G04 #@! TO.P,U1,17*
X151050000Y-89100000D03*
G04 #@! TO.P,U1,18*
X149800000Y-89100000D03*
G04 #@! TO.P,U1,19*
G04 #@! TO.N,Net-(C3-Pad1)*
X148550000Y-89100000D03*
G04 #@! TO.P,U1,20*
G04 #@! TO.N,GND*
X147300000Y-89100000D03*
G04 #@! TD*
D11*
G04 #@! TO.N,GND*
G04 #@! TO.C,C3*
G36*
X146127505Y-98615204D02*
X146151773Y-98618804D01*
X146175572Y-98624765D01*
X146198671Y-98633030D01*
X146220850Y-98643520D01*
X146241893Y-98656132D01*
X146261599Y-98670747D01*
X146279777Y-98687223D01*
X146296253Y-98705401D01*
X146310868Y-98725107D01*
X146323480Y-98746150D01*
X146333970Y-98768329D01*
X146342235Y-98791428D01*
X146348196Y-98815227D01*
X146351796Y-98839495D01*
X146353000Y-98863999D01*
X146353000Y-99764001D01*
X146351796Y-99788505D01*
X146348196Y-99812773D01*
X146342235Y-99836572D01*
X146333970Y-99859671D01*
X146323480Y-99881850D01*
X146310868Y-99902893D01*
X146296253Y-99922599D01*
X146279777Y-99940777D01*
X146261599Y-99957253D01*
X146241893Y-99971868D01*
X146220850Y-99984480D01*
X146198671Y-99994970D01*
X146175572Y-100003235D01*
X146151773Y-100009196D01*
X146127505Y-100012796D01*
X146103001Y-100014000D01*
X145452999Y-100014000D01*
X145428495Y-100012796D01*
X145404227Y-100009196D01*
X145380428Y-100003235D01*
X145357329Y-99994970D01*
X145335150Y-99984480D01*
X145314107Y-99971868D01*
X145294401Y-99957253D01*
X145276223Y-99940777D01*
X145259747Y-99922599D01*
X145245132Y-99902893D01*
X145232520Y-99881850D01*
X145222030Y-99859671D01*
X145213765Y-99836572D01*
X145207804Y-99812773D01*
X145204204Y-99788505D01*
X145203000Y-99764001D01*
X145203000Y-98863999D01*
X145204204Y-98839495D01*
X145207804Y-98815227D01*
X145213765Y-98791428D01*
X145222030Y-98768329D01*
X145232520Y-98746150D01*
X145245132Y-98725107D01*
X145259747Y-98705401D01*
X145276223Y-98687223D01*
X145294401Y-98670747D01*
X145314107Y-98656132D01*
X145335150Y-98643520D01*
X145357329Y-98633030D01*
X145380428Y-98624765D01*
X145404227Y-98618804D01*
X145428495Y-98615204D01*
X145452999Y-98614000D01*
X146103001Y-98614000D01*
X146127505Y-98615204D01*
X146127505Y-98615204D01*
G37*
D16*
G04 #@! TD*
G04 #@! TO.P,C3,2*
G04 #@! TO.N,GND*
X145778000Y-99314000D03*
D11*
G04 #@! TO.N,Net-(C3-Pad1)*
G04 #@! TO.C,C3*
G36*
X148177505Y-98615204D02*
X148201773Y-98618804D01*
X148225572Y-98624765D01*
X148248671Y-98633030D01*
X148270850Y-98643520D01*
X148291893Y-98656132D01*
X148311599Y-98670747D01*
X148329777Y-98687223D01*
X148346253Y-98705401D01*
X148360868Y-98725107D01*
X148373480Y-98746150D01*
X148383970Y-98768329D01*
X148392235Y-98791428D01*
X148398196Y-98815227D01*
X148401796Y-98839495D01*
X148403000Y-98863999D01*
X148403000Y-99764001D01*
X148401796Y-99788505D01*
X148398196Y-99812773D01*
X148392235Y-99836572D01*
X148383970Y-99859671D01*
X148373480Y-99881850D01*
X148360868Y-99902893D01*
X148346253Y-99922599D01*
X148329777Y-99940777D01*
X148311599Y-99957253D01*
X148291893Y-99971868D01*
X148270850Y-99984480D01*
X148248671Y-99994970D01*
X148225572Y-100003235D01*
X148201773Y-100009196D01*
X148177505Y-100012796D01*
X148153001Y-100014000D01*
X147502999Y-100014000D01*
X147478495Y-100012796D01*
X147454227Y-100009196D01*
X147430428Y-100003235D01*
X147407329Y-99994970D01*
X147385150Y-99984480D01*
X147364107Y-99971868D01*
X147344401Y-99957253D01*
X147326223Y-99940777D01*
X147309747Y-99922599D01*
X147295132Y-99902893D01*
X147282520Y-99881850D01*
X147272030Y-99859671D01*
X147263765Y-99836572D01*
X147257804Y-99812773D01*
X147254204Y-99788505D01*
X147253000Y-99764001D01*
X147253000Y-98863999D01*
X147254204Y-98839495D01*
X147257804Y-98815227D01*
X147263765Y-98791428D01*
X147272030Y-98768329D01*
X147282520Y-98746150D01*
X147295132Y-98725107D01*
X147309747Y-98705401D01*
X147326223Y-98687223D01*
X147344401Y-98670747D01*
X147364107Y-98656132D01*
X147385150Y-98643520D01*
X147407329Y-98633030D01*
X147430428Y-98624765D01*
X147454227Y-98618804D01*
X147478495Y-98615204D01*
X147502999Y-98614000D01*
X148153001Y-98614000D01*
X148177505Y-98615204D01*
X148177505Y-98615204D01*
G37*
D16*
G04 #@! TD*
G04 #@! TO.P,C3,1*
G04 #@! TO.N,Net-(C3-Pad1)*
X147828000Y-99314000D03*
D11*
G04 #@! TO.N,GND*
G04 #@! TO.C,C2*
G36*
X154398505Y-100772204D02*
X154422773Y-100775804D01*
X154446572Y-100781765D01*
X154469671Y-100790030D01*
X154491850Y-100800520D01*
X154512893Y-100813132D01*
X154532599Y-100827747D01*
X154550777Y-100844223D01*
X154567253Y-100862401D01*
X154581868Y-100882107D01*
X154594480Y-100903150D01*
X154604970Y-100925329D01*
X154613235Y-100948428D01*
X154619196Y-100972227D01*
X154622796Y-100996495D01*
X154624000Y-101020999D01*
X154624000Y-101671001D01*
X154622796Y-101695505D01*
X154619196Y-101719773D01*
X154613235Y-101743572D01*
X154604970Y-101766671D01*
X154594480Y-101788850D01*
X154581868Y-101809893D01*
X154567253Y-101829599D01*
X154550777Y-101847777D01*
X154532599Y-101864253D01*
X154512893Y-101878868D01*
X154491850Y-101891480D01*
X154469671Y-101901970D01*
X154446572Y-101910235D01*
X154422773Y-101916196D01*
X154398505Y-101919796D01*
X154374001Y-101921000D01*
X153473999Y-101921000D01*
X153449495Y-101919796D01*
X153425227Y-101916196D01*
X153401428Y-101910235D01*
X153378329Y-101901970D01*
X153356150Y-101891480D01*
X153335107Y-101878868D01*
X153315401Y-101864253D01*
X153297223Y-101847777D01*
X153280747Y-101829599D01*
X153266132Y-101809893D01*
X153253520Y-101788850D01*
X153243030Y-101766671D01*
X153234765Y-101743572D01*
X153228804Y-101719773D01*
X153225204Y-101695505D01*
X153224000Y-101671001D01*
X153224000Y-101020999D01*
X153225204Y-100996495D01*
X153228804Y-100972227D01*
X153234765Y-100948428D01*
X153243030Y-100925329D01*
X153253520Y-100903150D01*
X153266132Y-100882107D01*
X153280747Y-100862401D01*
X153297223Y-100844223D01*
X153315401Y-100827747D01*
X153335107Y-100813132D01*
X153356150Y-100800520D01*
X153378329Y-100790030D01*
X153401428Y-100781765D01*
X153425227Y-100775804D01*
X153449495Y-100772204D01*
X153473999Y-100771000D01*
X154374001Y-100771000D01*
X154398505Y-100772204D01*
X154398505Y-100772204D01*
G37*
D16*
G04 #@! TD*
G04 #@! TO.P,C2,2*
G04 #@! TO.N,GND*
X153924000Y-101346000D03*
D11*
G04 #@! TO.N,Net-(C2-Pad1)*
G04 #@! TO.C,C2*
G36*
X154398505Y-98722204D02*
X154422773Y-98725804D01*
X154446572Y-98731765D01*
X154469671Y-98740030D01*
X154491850Y-98750520D01*
X154512893Y-98763132D01*
X154532599Y-98777747D01*
X154550777Y-98794223D01*
X154567253Y-98812401D01*
X154581868Y-98832107D01*
X154594480Y-98853150D01*
X154604970Y-98875329D01*
X154613235Y-98898428D01*
X154619196Y-98922227D01*
X154622796Y-98946495D01*
X154624000Y-98970999D01*
X154624000Y-99621001D01*
X154622796Y-99645505D01*
X154619196Y-99669773D01*
X154613235Y-99693572D01*
X154604970Y-99716671D01*
X154594480Y-99738850D01*
X154581868Y-99759893D01*
X154567253Y-99779599D01*
X154550777Y-99797777D01*
X154532599Y-99814253D01*
X154512893Y-99828868D01*
X154491850Y-99841480D01*
X154469671Y-99851970D01*
X154446572Y-99860235D01*
X154422773Y-99866196D01*
X154398505Y-99869796D01*
X154374001Y-99871000D01*
X153473999Y-99871000D01*
X153449495Y-99869796D01*
X153425227Y-99866196D01*
X153401428Y-99860235D01*
X153378329Y-99851970D01*
X153356150Y-99841480D01*
X153335107Y-99828868D01*
X153315401Y-99814253D01*
X153297223Y-99797777D01*
X153280747Y-99779599D01*
X153266132Y-99759893D01*
X153253520Y-99738850D01*
X153243030Y-99716671D01*
X153234765Y-99693572D01*
X153228804Y-99669773D01*
X153225204Y-99645505D01*
X153224000Y-99621001D01*
X153224000Y-98970999D01*
X153225204Y-98946495D01*
X153228804Y-98922227D01*
X153234765Y-98898428D01*
X153243030Y-98875329D01*
X153253520Y-98853150D01*
X153266132Y-98832107D01*
X153280747Y-98812401D01*
X153297223Y-98794223D01*
X153315401Y-98777747D01*
X153335107Y-98763132D01*
X153356150Y-98750520D01*
X153378329Y-98740030D01*
X153401428Y-98731765D01*
X153425227Y-98725804D01*
X153449495Y-98722204D01*
X153473999Y-98721000D01*
X154374001Y-98721000D01*
X154398505Y-98722204D01*
X154398505Y-98722204D01*
G37*
D16*
G04 #@! TD*
G04 #@! TO.P,C2,1*
G04 #@! TO.N,Net-(C2-Pad1)*
X153924000Y-99296000D03*
D11*
G04 #@! TO.N,GND*
G04 #@! TO.C,C1*
G36*
X146127505Y-100647204D02*
X146151773Y-100650804D01*
X146175572Y-100656765D01*
X146198671Y-100665030D01*
X146220850Y-100675520D01*
X146241893Y-100688132D01*
X146261599Y-100702747D01*
X146279777Y-100719223D01*
X146296253Y-100737401D01*
X146310868Y-100757107D01*
X146323480Y-100778150D01*
X146333970Y-100800329D01*
X146342235Y-100823428D01*
X146348196Y-100847227D01*
X146351796Y-100871495D01*
X146353000Y-100895999D01*
X146353000Y-101796001D01*
X146351796Y-101820505D01*
X146348196Y-101844773D01*
X146342235Y-101868572D01*
X146333970Y-101891671D01*
X146323480Y-101913850D01*
X146310868Y-101934893D01*
X146296253Y-101954599D01*
X146279777Y-101972777D01*
X146261599Y-101989253D01*
X146241893Y-102003868D01*
X146220850Y-102016480D01*
X146198671Y-102026970D01*
X146175572Y-102035235D01*
X146151773Y-102041196D01*
X146127505Y-102044796D01*
X146103001Y-102046000D01*
X145452999Y-102046000D01*
X145428495Y-102044796D01*
X145404227Y-102041196D01*
X145380428Y-102035235D01*
X145357329Y-102026970D01*
X145335150Y-102016480D01*
X145314107Y-102003868D01*
X145294401Y-101989253D01*
X145276223Y-101972777D01*
X145259747Y-101954599D01*
X145245132Y-101934893D01*
X145232520Y-101913850D01*
X145222030Y-101891671D01*
X145213765Y-101868572D01*
X145207804Y-101844773D01*
X145204204Y-101820505D01*
X145203000Y-101796001D01*
X145203000Y-100895999D01*
X145204204Y-100871495D01*
X145207804Y-100847227D01*
X145213765Y-100823428D01*
X145222030Y-100800329D01*
X145232520Y-100778150D01*
X145245132Y-100757107D01*
X145259747Y-100737401D01*
X145276223Y-100719223D01*
X145294401Y-100702747D01*
X145314107Y-100688132D01*
X145335150Y-100675520D01*
X145357329Y-100665030D01*
X145380428Y-100656765D01*
X145404227Y-100650804D01*
X145428495Y-100647204D01*
X145452999Y-100646000D01*
X146103001Y-100646000D01*
X146127505Y-100647204D01*
X146127505Y-100647204D01*
G37*
D16*
G04 #@! TD*
G04 #@! TO.P,C1,2*
G04 #@! TO.N,GND*
X145778000Y-101346000D03*
D11*
G04 #@! TO.N,Vin*
G04 #@! TO.C,C1*
G36*
X148177505Y-100647204D02*
X148201773Y-100650804D01*
X148225572Y-100656765D01*
X148248671Y-100665030D01*
X148270850Y-100675520D01*
X148291893Y-100688132D01*
X148311599Y-100702747D01*
X148329777Y-100719223D01*
X148346253Y-100737401D01*
X148360868Y-100757107D01*
X148373480Y-100778150D01*
X148383970Y-100800329D01*
X148392235Y-100823428D01*
X148398196Y-100847227D01*
X148401796Y-100871495D01*
X148403000Y-100895999D01*
X148403000Y-101796001D01*
X148401796Y-101820505D01*
X148398196Y-101844773D01*
X148392235Y-101868572D01*
X148383970Y-101891671D01*
X148373480Y-101913850D01*
X148360868Y-101934893D01*
X148346253Y-101954599D01*
X148329777Y-101972777D01*
X148311599Y-101989253D01*
X148291893Y-102003868D01*
X148270850Y-102016480D01*
X148248671Y-102026970D01*
X148225572Y-102035235D01*
X148201773Y-102041196D01*
X148177505Y-102044796D01*
X148153001Y-102046000D01*
X147502999Y-102046000D01*
X147478495Y-102044796D01*
X147454227Y-102041196D01*
X147430428Y-102035235D01*
X147407329Y-102026970D01*
X147385150Y-102016480D01*
X147364107Y-102003868D01*
X147344401Y-101989253D01*
X147326223Y-101972777D01*
X147309747Y-101954599D01*
X147295132Y-101934893D01*
X147282520Y-101913850D01*
X147272030Y-101891671D01*
X147263765Y-101868572D01*
X147257804Y-101844773D01*
X147254204Y-101820505D01*
X147253000Y-101796001D01*
X147253000Y-100895999D01*
X147254204Y-100871495D01*
X147257804Y-100847227D01*
X147263765Y-100823428D01*
X147272030Y-100800329D01*
X147282520Y-100778150D01*
X147295132Y-100757107D01*
X147309747Y-100737401D01*
X147326223Y-100719223D01*
X147344401Y-100702747D01*
X147364107Y-100688132D01*
X147385150Y-100675520D01*
X147407329Y-100665030D01*
X147430428Y-100656765D01*
X147454227Y-100650804D01*
X147478495Y-100647204D01*
X147502999Y-100646000D01*
X148153001Y-100646000D01*
X148177505Y-100647204D01*
X148177505Y-100647204D01*
G37*
D16*
G04 #@! TD*
G04 #@! TO.P,C1,1*
G04 #@! TO.N,Vin*
X147828000Y-101346000D03*
D17*
G04 #@! TO.P,U2,5*
G04 #@! TO.N,Net-(JP1-Pad3)*
X149926000Y-98976000D03*
G04 #@! TO.P,U2,4*
G04 #@! TO.N,Net-(C2-Pad1)*
X151826000Y-98976000D03*
G04 #@! TO.P,U2,3*
G04 #@! TO.N,Net-(JP2-Pad2)*
X151826000Y-101176000D03*
G04 #@! TO.P,U2,2*
G04 #@! TO.N,GND*
X150876000Y-101176000D03*
G04 #@! TO.P,U2,1*
G04 #@! TO.N,Vin*
X149926000Y-101176000D03*
G04 #@! TD*
D18*
G04 #@! TO.N,Vin*
X148590000Y-103632000D03*
G04 #@! TO.N,GPIO0*
X149605980Y-102147318D03*
G04 #@! TO.N,SCL*
X151136391Y-102724292D03*
X151017308Y-98378705D03*
G04 #@! TO.N,SDA*
X153416000Y-102616000D03*
X153416000Y-97100000D03*
G04 #@! TO.N,GND*
X146050000Y-89154000D03*
X153924000Y-89154000D03*
X154178000Y-100330000D03*
X154178000Y-97790000D03*
G04 #@! TO.N,Net-(JP2-Pad2)*
X150994364Y-99900672D03*
G04 #@! TO.N,Net-(JP1-Pad3)*
X151059688Y-99060000D03*
G04 #@! TO.N,Net-(C3-Pad1)*
X148590000Y-96519994D03*
X148590000Y-89662006D03*
G04 #@! TD*
D19*
G04 #@! TO.N,Vin*
X147574000Y-101600000D02*
X147828000Y-101346000D01*
X147574000Y-103632000D02*
X147574000Y-101600000D01*
X147574000Y-103632000D02*
X148590000Y-103632000D01*
X149756000Y-101346000D02*
X149926000Y-101176000D01*
X147828000Y-101346000D02*
X149756000Y-101346000D01*
D20*
G04 #@! TO.N,GPIO0*
X149756318Y-102147318D02*
X149605980Y-102147318D01*
X149860000Y-103632000D02*
X149860000Y-102251000D01*
X149860000Y-102251000D02*
X149756318Y-102147318D01*
D21*
G04 #@! TO.N,SCL*
X152146000Y-103632000D02*
X151493600Y-103632000D01*
X151180671Y-102728262D02*
X151176701Y-102724292D01*
X151180671Y-103319071D02*
X151180671Y-102728262D01*
X151176701Y-102724292D02*
X151136391Y-102724292D01*
X151493600Y-103632000D02*
X151180671Y-103319071D01*
D20*
X151050000Y-98346013D02*
X151017308Y-98378705D01*
X151050000Y-97100000D02*
X151050000Y-98346013D01*
G04 #@! TO.N,SDA*
X153525600Y-103632000D02*
X153416000Y-103522400D01*
X153416000Y-103522400D02*
X153416000Y-102957249D01*
X154178000Y-103632000D02*
X153525600Y-103632000D01*
X153416000Y-102957249D02*
X153416000Y-102616000D01*
X152300000Y-97100000D02*
X153416000Y-97100000D01*
G04 #@! TO.N,GND*
X147300000Y-90600000D02*
X149800000Y-93100000D01*
X147300000Y-89100000D02*
X147300000Y-90600000D01*
X147300000Y-95600000D02*
X149800000Y-93100000D01*
X147300000Y-97100000D02*
X147300000Y-95600000D01*
X145542000Y-101582000D02*
X145778000Y-101346000D01*
X145542000Y-103632000D02*
X145542000Y-101582000D01*
D21*
X150364098Y-100330000D02*
X146794000Y-100330000D01*
X150876000Y-101176000D02*
X150876000Y-100841902D01*
D20*
X147300000Y-89100000D02*
X146104000Y-89100000D01*
X146104000Y-89100000D02*
X146050000Y-89154000D01*
X154178000Y-101092000D02*
X153924000Y-101346000D01*
X154178000Y-100330000D02*
X154178000Y-101092000D01*
X145778000Y-97100000D02*
X147300000Y-97100000D01*
X145778000Y-101346000D02*
X145778000Y-97100000D01*
X145778000Y-100330000D02*
X145778000Y-101346000D01*
X146794000Y-100330000D02*
X145778000Y-100330000D01*
X150881491Y-102092491D02*
X150876000Y-102087000D01*
X151443666Y-102096501D02*
X151439656Y-102092491D01*
X150876000Y-102087000D02*
X150876000Y-101176000D01*
X151439656Y-102092491D02*
X150881491Y-102092491D01*
X153924000Y-101092000D02*
X152919499Y-102096501D01*
X152919499Y-102096501D02*
X151443666Y-102096501D01*
D22*
X150622000Y-100330000D02*
X150364098Y-100330000D01*
X150876000Y-100584000D02*
X150622000Y-100330000D01*
X150876000Y-100841902D02*
X150876000Y-100584000D01*
D20*
G04 #@! TO.N,Net-(JP2-Pad2)*
X151826000Y-101176000D02*
X151826000Y-100265000D01*
X151335613Y-99900672D02*
X150994364Y-99900672D01*
X151826000Y-100265000D02*
X151461672Y-99900672D01*
X151461672Y-99900672D02*
X151335613Y-99900672D01*
D21*
G04 #@! TO.N,Net-(C2-Pad1)*
X153858000Y-98976000D02*
X153924000Y-99042000D01*
X151826000Y-98976000D02*
X153858000Y-98976000D01*
D20*
G04 #@! TO.N,Net-(JP1-Pad3)*
X149926000Y-98976000D02*
X150632000Y-98976000D01*
X150718439Y-99060000D02*
X151059688Y-99060000D01*
X150716000Y-99060000D02*
X150718439Y-99060000D01*
X150632000Y-98976000D02*
X150716000Y-99060000D01*
G04 #@! TO.N,Net-(C3-Pad1)*
X147828000Y-99060000D02*
X148590000Y-98298000D01*
X148590000Y-96861243D02*
X148590000Y-96519994D01*
X148590000Y-98298000D02*
X148590000Y-96861243D01*
X148550000Y-89622006D02*
X148590000Y-89662006D01*
X148550000Y-89450000D02*
X148550000Y-89622006D01*
G04 #@! TD*
D11*
G04 #@! TO.N,GND*
G36*
X146725000Y-88315191D02*
X146725000Y-88915750D01*
X146768750Y-88959500D01*
X147159500Y-88959500D01*
X147159500Y-88939500D01*
X147440500Y-88939500D01*
X147440500Y-88959500D01*
X147831250Y-88959500D01*
X147875000Y-88915750D01*
X147875000Y-88315191D01*
X147868708Y-88300000D01*
X147905049Y-88300000D01*
X147895103Y-88350000D01*
X147895103Y-89850000D01*
X147914506Y-89947545D01*
X147969761Y-90030239D01*
X148052455Y-90085494D01*
X148150000Y-90104897D01*
X148375405Y-90104897D01*
X148492274Y-90153306D01*
X148687726Y-90153306D01*
X148804595Y-90104897D01*
X148950000Y-90104897D01*
X149047545Y-90085494D01*
X149130239Y-90030239D01*
X149175000Y-89963250D01*
X149219761Y-90030239D01*
X149302455Y-90085494D01*
X149400000Y-90104897D01*
X150200000Y-90104897D01*
X150297545Y-90085494D01*
X150380239Y-90030239D01*
X150425000Y-89963250D01*
X150469761Y-90030239D01*
X150552455Y-90085494D01*
X150650000Y-90104897D01*
X151450000Y-90104897D01*
X151547545Y-90085494D01*
X151630239Y-90030239D01*
X151675000Y-89963250D01*
X151719761Y-90030239D01*
X151802455Y-90085494D01*
X151900000Y-90104897D01*
X152700000Y-90104897D01*
X152797545Y-90085494D01*
X152848661Y-90051339D01*
X152814506Y-90102455D01*
X152795103Y-90200000D01*
X152795103Y-91000000D01*
X152814506Y-91097545D01*
X152869761Y-91180239D01*
X152936750Y-91225000D01*
X152869761Y-91269761D01*
X152814506Y-91352455D01*
X152795103Y-91450000D01*
X152795103Y-92250000D01*
X152814506Y-92347545D01*
X152869761Y-92430239D01*
X152936750Y-92475000D01*
X152869761Y-92519761D01*
X152814506Y-92602455D01*
X152795103Y-92700000D01*
X152795103Y-93500000D01*
X152814506Y-93597545D01*
X152869761Y-93680239D01*
X152936750Y-93725000D01*
X152869761Y-93769761D01*
X152814506Y-93852455D01*
X152795103Y-93950000D01*
X152795103Y-94750000D01*
X152814506Y-94847545D01*
X152869761Y-94930239D01*
X152936750Y-94975000D01*
X152869761Y-95019761D01*
X152814506Y-95102455D01*
X152795103Y-95200000D01*
X152795103Y-96000000D01*
X152814506Y-96097545D01*
X152848661Y-96148661D01*
X152797545Y-96114506D01*
X152700000Y-96095103D01*
X151900000Y-96095103D01*
X151802455Y-96114506D01*
X151719761Y-96169761D01*
X151675000Y-96236750D01*
X151630239Y-96169761D01*
X151547545Y-96114506D01*
X151450000Y-96095103D01*
X150650000Y-96095103D01*
X150552455Y-96114506D01*
X150469761Y-96169761D01*
X150425000Y-96236750D01*
X150380239Y-96169761D01*
X150297545Y-96114506D01*
X150200000Y-96095103D01*
X149400000Y-96095103D01*
X149302455Y-96114506D01*
X149219761Y-96169761D01*
X149175000Y-96236750D01*
X149130239Y-96169761D01*
X149047545Y-96114506D01*
X148950000Y-96095103D01*
X148848051Y-96095103D01*
X148687726Y-96028694D01*
X148492274Y-96028694D01*
X148331949Y-96095103D01*
X148150000Y-96095103D01*
X148052455Y-96114506D01*
X147969761Y-96169761D01*
X147914506Y-96252455D01*
X147895103Y-96350000D01*
X147895103Y-97850000D01*
X147914506Y-97947545D01*
X147969761Y-98030239D01*
X148052455Y-98085494D01*
X148149500Y-98104798D01*
X148149500Y-98115539D01*
X147905936Y-98359103D01*
X147502999Y-98359103D01*
X147309784Y-98397536D01*
X147145984Y-98506984D01*
X147036536Y-98670784D01*
X146998103Y-98863999D01*
X146998103Y-99764001D01*
X147036536Y-99957216D01*
X147145984Y-100121016D01*
X147309784Y-100230464D01*
X147502999Y-100268897D01*
X148153001Y-100268897D01*
X148346216Y-100230464D01*
X148510016Y-100121016D01*
X148619464Y-99957216D01*
X148657897Y-99764001D01*
X148657897Y-98863999D01*
X148656083Y-98854878D01*
X148870806Y-98640154D01*
X148907582Y-98615582D01*
X148938908Y-98568700D01*
X149004941Y-98469875D01*
X149019330Y-98397536D01*
X149030500Y-98341381D01*
X149030500Y-98341377D01*
X149039128Y-98298000D01*
X149030500Y-98254623D01*
X149030500Y-98088884D01*
X149047545Y-98085494D01*
X149130239Y-98030239D01*
X149175000Y-97963250D01*
X149219761Y-98030239D01*
X149302455Y-98085494D01*
X149400000Y-98104897D01*
X150200000Y-98104897D01*
X150297545Y-98085494D01*
X150380239Y-98030239D01*
X150425000Y-97963250D01*
X150469761Y-98030239D01*
X150552455Y-98085494D01*
X150605220Y-98095990D01*
X150600804Y-98100406D01*
X150526008Y-98280979D01*
X150526008Y-98476431D01*
X150550475Y-98535500D01*
X150505897Y-98535500D01*
X150505897Y-98446000D01*
X150486494Y-98348455D01*
X150431239Y-98265761D01*
X150348545Y-98210506D01*
X150251000Y-98191103D01*
X149601000Y-98191103D01*
X149503455Y-98210506D01*
X149420761Y-98265761D01*
X149365506Y-98348455D01*
X149346103Y-98446000D01*
X149346103Y-99506000D01*
X149365506Y-99603545D01*
X149420761Y-99686239D01*
X149503455Y-99741494D01*
X149601000Y-99760897D01*
X150251000Y-99760897D01*
X150348545Y-99741494D01*
X150431239Y-99686239D01*
X150486494Y-99603545D01*
X150505897Y-99506000D01*
X150505897Y-99449397D01*
X150544126Y-99474941D01*
X150672619Y-99500500D01*
X150672624Y-99500500D01*
X150695235Y-99504998D01*
X150577860Y-99622373D01*
X150503064Y-99802946D01*
X150503064Y-99998398D01*
X150577860Y-100178971D01*
X150716065Y-100317176D01*
X150896638Y-100391972D01*
X151092090Y-100391972D01*
X151214732Y-100341172D01*
X151279212Y-100341172D01*
X151370539Y-100432500D01*
X151320761Y-100465761D01*
X151299604Y-100497424D01*
X151235809Y-100471000D01*
X151060250Y-100471000D01*
X151016500Y-100514750D01*
X151016500Y-101035500D01*
X151036500Y-101035500D01*
X151036500Y-101316500D01*
X151016500Y-101316500D01*
X151016500Y-101837250D01*
X151060250Y-101881000D01*
X151235809Y-101881000D01*
X151299604Y-101854576D01*
X151320761Y-101886239D01*
X151403455Y-101941494D01*
X151501000Y-101960897D01*
X152151000Y-101960897D01*
X152248545Y-101941494D01*
X152331239Y-101886239D01*
X152386494Y-101803545D01*
X152405897Y-101706000D01*
X152405897Y-101530250D01*
X153049000Y-101530250D01*
X153049000Y-101955810D01*
X153075642Y-102020130D01*
X153124871Y-102069358D01*
X153189191Y-102096000D01*
X153739750Y-102096000D01*
X153783500Y-102052250D01*
X153783500Y-101486500D01*
X153092750Y-101486500D01*
X153049000Y-101530250D01*
X152405897Y-101530250D01*
X152405897Y-100736190D01*
X153049000Y-100736190D01*
X153049000Y-101161750D01*
X153092750Y-101205500D01*
X153783500Y-101205500D01*
X153783500Y-100639750D01*
X153739750Y-100596000D01*
X153189191Y-100596000D01*
X153124871Y-100622642D01*
X153075642Y-100671870D01*
X153049000Y-100736190D01*
X152405897Y-100736190D01*
X152405897Y-100646000D01*
X152386494Y-100548455D01*
X152331239Y-100465761D01*
X152266500Y-100422503D01*
X152266500Y-100308381D01*
X152275129Y-100265000D01*
X152240941Y-100093125D01*
X152168155Y-99984194D01*
X152143582Y-99947418D01*
X152106806Y-99922845D01*
X151944857Y-99760897D01*
X152151000Y-99760897D01*
X152248545Y-99741494D01*
X152331239Y-99686239D01*
X152386494Y-99603545D01*
X152405897Y-99506000D01*
X152405897Y-99302200D01*
X152969103Y-99302200D01*
X152969103Y-99621001D01*
X153007536Y-99814216D01*
X153116984Y-99978016D01*
X153280784Y-100087464D01*
X153473999Y-100125897D01*
X154374001Y-100125897D01*
X154567216Y-100087464D01*
X154700000Y-99998740D01*
X154700000Y-100613062D01*
X154658809Y-100596000D01*
X154108250Y-100596000D01*
X154064500Y-100639750D01*
X154064500Y-101205500D01*
X154084500Y-101205500D01*
X154084500Y-101486500D01*
X154064500Y-101486500D01*
X154064500Y-102052250D01*
X154108250Y-102096000D01*
X154658809Y-102096000D01*
X154700000Y-102078938D01*
X154700000Y-102381479D01*
X154678000Y-102377103D01*
X153848825Y-102377103D01*
X153832504Y-102337701D01*
X153694299Y-102199496D01*
X153513726Y-102124700D01*
X153318274Y-102124700D01*
X153137701Y-102199496D01*
X152999496Y-102337701D01*
X152924700Y-102518274D01*
X152924700Y-102713726D01*
X152975500Y-102836368D01*
X152975500Y-103000629D01*
X152975501Y-103000633D01*
X152975500Y-103328000D01*
X152900897Y-103328000D01*
X152900897Y-102632000D01*
X152881494Y-102534455D01*
X152826239Y-102451761D01*
X152743545Y-102396506D01*
X152646000Y-102377103D01*
X151646000Y-102377103D01*
X151548455Y-102396506D01*
X151521451Y-102414549D01*
X151414690Y-102307788D01*
X151234117Y-102232992D01*
X151038665Y-102232992D01*
X150858092Y-102307788D01*
X150719887Y-102445993D01*
X150645091Y-102626566D01*
X150645091Y-102822018D01*
X150719887Y-103002591D01*
X150854471Y-103137175D01*
X150854471Y-103286946D01*
X150848081Y-103319071D01*
X150849857Y-103328000D01*
X150614897Y-103328000D01*
X150614897Y-102632000D01*
X150595494Y-102534455D01*
X150540239Y-102451761D01*
X150457545Y-102396506D01*
X150360000Y-102377103D01*
X150300500Y-102377103D01*
X150300500Y-102294375D01*
X150309128Y-102250999D01*
X150300500Y-102207624D01*
X150300500Y-102207619D01*
X150274941Y-102079126D01*
X150195943Y-101960897D01*
X150251000Y-101960897D01*
X150348545Y-101941494D01*
X150431239Y-101886239D01*
X150452396Y-101854576D01*
X150516191Y-101881000D01*
X150691750Y-101881000D01*
X150735500Y-101837250D01*
X150735500Y-101316500D01*
X150715500Y-101316500D01*
X150715500Y-101035500D01*
X150735500Y-101035500D01*
X150735500Y-100514750D01*
X150691750Y-100471000D01*
X150516191Y-100471000D01*
X150452396Y-100497424D01*
X150431239Y-100465761D01*
X150348545Y-100410506D01*
X150251000Y-100391103D01*
X149601000Y-100391103D01*
X149503455Y-100410506D01*
X149420761Y-100465761D01*
X149365506Y-100548455D01*
X149346103Y-100646000D01*
X149346103Y-100842000D01*
X148647156Y-100842000D01*
X148619464Y-100702784D01*
X148510016Y-100538984D01*
X148346216Y-100429536D01*
X148153001Y-100391103D01*
X147502999Y-100391103D01*
X147309784Y-100429536D01*
X147145984Y-100538984D01*
X147036536Y-100702784D01*
X146998103Y-100895999D01*
X146998103Y-101796001D01*
X147036536Y-101989216D01*
X147070001Y-102039299D01*
X147070001Y-102377899D01*
X146976455Y-102396506D01*
X146893761Y-102451761D01*
X146838506Y-102534455D01*
X146819103Y-102632000D01*
X146819103Y-103328000D01*
X146217000Y-103328000D01*
X146217000Y-102597191D01*
X146190358Y-102532871D01*
X146141130Y-102483642D01*
X146076810Y-102457000D01*
X145726250Y-102457000D01*
X145682500Y-102500750D01*
X145682500Y-103328000D01*
X145401500Y-103328000D01*
X145401500Y-102500750D01*
X145357750Y-102457000D01*
X145007190Y-102457000D01*
X145000000Y-102459978D01*
X145000000Y-101530250D01*
X145028000Y-101530250D01*
X145028000Y-102080809D01*
X145054642Y-102145129D01*
X145103870Y-102194358D01*
X145168190Y-102221000D01*
X145593750Y-102221000D01*
X145637500Y-102177250D01*
X145637500Y-101486500D01*
X145918500Y-101486500D01*
X145918500Y-102177250D01*
X145962250Y-102221000D01*
X146387810Y-102221000D01*
X146452130Y-102194358D01*
X146501358Y-102145129D01*
X146528000Y-102080809D01*
X146528000Y-101530250D01*
X146484250Y-101486500D01*
X145918500Y-101486500D01*
X145637500Y-101486500D01*
X145071750Y-101486500D01*
X145028000Y-101530250D01*
X145000000Y-101530250D01*
X145000000Y-100611191D01*
X145028000Y-100611191D01*
X145028000Y-101161750D01*
X145071750Y-101205500D01*
X145637500Y-101205500D01*
X145637500Y-100514750D01*
X145918500Y-100514750D01*
X145918500Y-101205500D01*
X146484250Y-101205500D01*
X146528000Y-101161750D01*
X146528000Y-100611191D01*
X146501358Y-100546871D01*
X146452130Y-100497642D01*
X146387810Y-100471000D01*
X145962250Y-100471000D01*
X145918500Y-100514750D01*
X145637500Y-100514750D01*
X145593750Y-100471000D01*
X145168190Y-100471000D01*
X145103870Y-100497642D01*
X145054642Y-100546871D01*
X145028000Y-100611191D01*
X145000000Y-100611191D01*
X145000000Y-99498250D01*
X145028000Y-99498250D01*
X145028000Y-100048809D01*
X145054642Y-100113129D01*
X145103870Y-100162358D01*
X145168190Y-100189000D01*
X145593750Y-100189000D01*
X145637500Y-100145250D01*
X145637500Y-99454500D01*
X145918500Y-99454500D01*
X145918500Y-100145250D01*
X145962250Y-100189000D01*
X146387810Y-100189000D01*
X146452130Y-100162358D01*
X146501358Y-100113129D01*
X146528000Y-100048809D01*
X146528000Y-99498250D01*
X146484250Y-99454500D01*
X145918500Y-99454500D01*
X145637500Y-99454500D01*
X145071750Y-99454500D01*
X145028000Y-99498250D01*
X145000000Y-99498250D01*
X145000000Y-98579191D01*
X145028000Y-98579191D01*
X145028000Y-99129750D01*
X145071750Y-99173500D01*
X145637500Y-99173500D01*
X145637500Y-98482750D01*
X145918500Y-98482750D01*
X145918500Y-99173500D01*
X146484250Y-99173500D01*
X146528000Y-99129750D01*
X146528000Y-98579191D01*
X146501358Y-98514871D01*
X146452130Y-98465642D01*
X146387810Y-98439000D01*
X145962250Y-98439000D01*
X145918500Y-98482750D01*
X145637500Y-98482750D01*
X145593750Y-98439000D01*
X145168190Y-98439000D01*
X145103870Y-98465642D01*
X145054642Y-98514871D01*
X145028000Y-98579191D01*
X145000000Y-98579191D01*
X145000000Y-97284250D01*
X146725000Y-97284250D01*
X146725000Y-97884809D01*
X146751642Y-97949129D01*
X146800870Y-97998358D01*
X146865190Y-98025000D01*
X147115750Y-98025000D01*
X147159500Y-97981250D01*
X147159500Y-97240500D01*
X147440500Y-97240500D01*
X147440500Y-97981250D01*
X147484250Y-98025000D01*
X147734810Y-98025000D01*
X147799130Y-97998358D01*
X147848358Y-97949129D01*
X147875000Y-97884809D01*
X147875000Y-97284250D01*
X147831250Y-97240500D01*
X147440500Y-97240500D01*
X147159500Y-97240500D01*
X146768750Y-97240500D01*
X146725000Y-97284250D01*
X145000000Y-97284250D01*
X145000000Y-96315191D01*
X146725000Y-96315191D01*
X146725000Y-96915750D01*
X146768750Y-96959500D01*
X147159500Y-96959500D01*
X147159500Y-96218750D01*
X147440500Y-96218750D01*
X147440500Y-96959500D01*
X147831250Y-96959500D01*
X147875000Y-96915750D01*
X147875000Y-96315191D01*
X147848358Y-96250871D01*
X147799130Y-96201642D01*
X147734810Y-96175000D01*
X147484250Y-96175000D01*
X147440500Y-96218750D01*
X147159500Y-96218750D01*
X147115750Y-96175000D01*
X146865190Y-96175000D01*
X146800870Y-96201642D01*
X146751642Y-96250871D01*
X146725000Y-96315191D01*
X145000000Y-96315191D01*
X145000000Y-96244951D01*
X145050000Y-96254897D01*
X146550000Y-96254897D01*
X146647545Y-96235494D01*
X146730239Y-96180239D01*
X146785494Y-96097545D01*
X146804897Y-96000000D01*
X146804897Y-95200000D01*
X146785494Y-95102455D01*
X146730239Y-95019761D01*
X146663250Y-94975000D01*
X146730239Y-94930239D01*
X146785494Y-94847545D01*
X146804897Y-94750000D01*
X146804897Y-93950000D01*
X146785494Y-93852455D01*
X146730239Y-93769761D01*
X146663250Y-93725000D01*
X146730239Y-93680239D01*
X146785494Y-93597545D01*
X146804897Y-93500000D01*
X146804897Y-93284250D01*
X147225000Y-93284250D01*
X147225000Y-95534809D01*
X147251642Y-95599129D01*
X147300870Y-95648358D01*
X147365190Y-95675000D01*
X149615750Y-95675000D01*
X149659500Y-95631250D01*
X149659500Y-93240500D01*
X149940500Y-93240500D01*
X149940500Y-95631250D01*
X149984250Y-95675000D01*
X152234810Y-95675000D01*
X152299130Y-95648358D01*
X152348358Y-95599129D01*
X152375000Y-95534809D01*
X152375000Y-93284250D01*
X152331250Y-93240500D01*
X149940500Y-93240500D01*
X149659500Y-93240500D01*
X147268750Y-93240500D01*
X147225000Y-93284250D01*
X146804897Y-93284250D01*
X146804897Y-92700000D01*
X146785494Y-92602455D01*
X146730239Y-92519761D01*
X146663250Y-92475000D01*
X146730239Y-92430239D01*
X146785494Y-92347545D01*
X146804897Y-92250000D01*
X146804897Y-91450000D01*
X146785494Y-91352455D01*
X146730239Y-91269761D01*
X146647545Y-91214506D01*
X146550000Y-91195103D01*
X146357994Y-91195103D01*
X146380239Y-91180239D01*
X146435494Y-91097545D01*
X146454897Y-91000000D01*
X146454897Y-90665191D01*
X147225000Y-90665191D01*
X147225000Y-92915750D01*
X147268750Y-92959500D01*
X149659500Y-92959500D01*
X149659500Y-90568750D01*
X149940500Y-90568750D01*
X149940500Y-92959500D01*
X152331250Y-92959500D01*
X152375000Y-92915750D01*
X152375000Y-90665191D01*
X152348358Y-90600871D01*
X152299130Y-90551642D01*
X152234810Y-90525000D01*
X149984250Y-90525000D01*
X149940500Y-90568750D01*
X149659500Y-90568750D01*
X149615750Y-90525000D01*
X147365190Y-90525000D01*
X147300870Y-90551642D01*
X147251642Y-90600871D01*
X147225000Y-90665191D01*
X146454897Y-90665191D01*
X146454897Y-90200000D01*
X146435494Y-90102455D01*
X146380239Y-90019761D01*
X146297545Y-89964506D01*
X146200000Y-89945103D01*
X145400000Y-89945103D01*
X145302455Y-89964506D01*
X145219761Y-90019761D01*
X145164506Y-90102455D01*
X145145103Y-90200000D01*
X145145103Y-91000000D01*
X145164506Y-91097545D01*
X145219761Y-91180239D01*
X145242006Y-91195103D01*
X145050000Y-91195103D01*
X145000000Y-91205049D01*
X145000000Y-89284250D01*
X146725000Y-89284250D01*
X146725000Y-89884809D01*
X146751642Y-89949129D01*
X146800870Y-89998358D01*
X146865190Y-90025000D01*
X147115750Y-90025000D01*
X147159500Y-89981250D01*
X147159500Y-89240500D01*
X147440500Y-89240500D01*
X147440500Y-89981250D01*
X147484250Y-90025000D01*
X147734810Y-90025000D01*
X147799130Y-89998358D01*
X147848358Y-89949129D01*
X147875000Y-89884809D01*
X147875000Y-89284250D01*
X147831250Y-89240500D01*
X147440500Y-89240500D01*
X147159500Y-89240500D01*
X146768750Y-89240500D01*
X146725000Y-89284250D01*
X145000000Y-89284250D01*
X145000000Y-88300000D01*
X146731292Y-88300000D01*
X146725000Y-88315191D01*
X146725000Y-88315191D01*
G37*
X146725000Y-88315191D02*
X146725000Y-88915750D01*
X146768750Y-88959500D01*
X147159500Y-88959500D01*
X147159500Y-88939500D01*
X147440500Y-88939500D01*
X147440500Y-88959500D01*
X147831250Y-88959500D01*
X147875000Y-88915750D01*
X147875000Y-88315191D01*
X147868708Y-88300000D01*
X147905049Y-88300000D01*
X147895103Y-88350000D01*
X147895103Y-89850000D01*
X147914506Y-89947545D01*
X147969761Y-90030239D01*
X148052455Y-90085494D01*
X148150000Y-90104897D01*
X148375405Y-90104897D01*
X148492274Y-90153306D01*
X148687726Y-90153306D01*
X148804595Y-90104897D01*
X148950000Y-90104897D01*
X149047545Y-90085494D01*
X149130239Y-90030239D01*
X149175000Y-89963250D01*
X149219761Y-90030239D01*
X149302455Y-90085494D01*
X149400000Y-90104897D01*
X150200000Y-90104897D01*
X150297545Y-90085494D01*
X150380239Y-90030239D01*
X150425000Y-89963250D01*
X150469761Y-90030239D01*
X150552455Y-90085494D01*
X150650000Y-90104897D01*
X151450000Y-90104897D01*
X151547545Y-90085494D01*
X151630239Y-90030239D01*
X151675000Y-89963250D01*
X151719761Y-90030239D01*
X151802455Y-90085494D01*
X151900000Y-90104897D01*
X152700000Y-90104897D01*
X152797545Y-90085494D01*
X152848661Y-90051339D01*
X152814506Y-90102455D01*
X152795103Y-90200000D01*
X152795103Y-91000000D01*
X152814506Y-91097545D01*
X152869761Y-91180239D01*
X152936750Y-91225000D01*
X152869761Y-91269761D01*
X152814506Y-91352455D01*
X152795103Y-91450000D01*
X152795103Y-92250000D01*
X152814506Y-92347545D01*
X152869761Y-92430239D01*
X152936750Y-92475000D01*
X152869761Y-92519761D01*
X152814506Y-92602455D01*
X152795103Y-92700000D01*
X152795103Y-93500000D01*
X152814506Y-93597545D01*
X152869761Y-93680239D01*
X152936750Y-93725000D01*
X152869761Y-93769761D01*
X152814506Y-93852455D01*
X152795103Y-93950000D01*
X152795103Y-94750000D01*
X152814506Y-94847545D01*
X152869761Y-94930239D01*
X152936750Y-94975000D01*
X152869761Y-95019761D01*
X152814506Y-95102455D01*
X152795103Y-95200000D01*
X152795103Y-96000000D01*
X152814506Y-96097545D01*
X152848661Y-96148661D01*
X152797545Y-96114506D01*
X152700000Y-96095103D01*
X151900000Y-96095103D01*
X151802455Y-96114506D01*
X151719761Y-96169761D01*
X151675000Y-96236750D01*
X151630239Y-96169761D01*
X151547545Y-96114506D01*
X151450000Y-96095103D01*
X150650000Y-96095103D01*
X150552455Y-96114506D01*
X150469761Y-96169761D01*
X150425000Y-96236750D01*
X150380239Y-96169761D01*
X150297545Y-96114506D01*
X150200000Y-96095103D01*
X149400000Y-96095103D01*
X149302455Y-96114506D01*
X149219761Y-96169761D01*
X149175000Y-96236750D01*
X149130239Y-96169761D01*
X149047545Y-96114506D01*
X148950000Y-96095103D01*
X148848051Y-96095103D01*
X148687726Y-96028694D01*
X148492274Y-96028694D01*
X148331949Y-96095103D01*
X148150000Y-96095103D01*
X148052455Y-96114506D01*
X147969761Y-96169761D01*
X147914506Y-96252455D01*
X147895103Y-96350000D01*
X147895103Y-97850000D01*
X147914506Y-97947545D01*
X147969761Y-98030239D01*
X148052455Y-98085494D01*
X148149500Y-98104798D01*
X148149500Y-98115539D01*
X147905936Y-98359103D01*
X147502999Y-98359103D01*
X147309784Y-98397536D01*
X147145984Y-98506984D01*
X147036536Y-98670784D01*
X146998103Y-98863999D01*
X146998103Y-99764001D01*
X147036536Y-99957216D01*
X147145984Y-100121016D01*
X147309784Y-100230464D01*
X147502999Y-100268897D01*
X148153001Y-100268897D01*
X148346216Y-100230464D01*
X148510016Y-100121016D01*
X148619464Y-99957216D01*
X148657897Y-99764001D01*
X148657897Y-98863999D01*
X148656083Y-98854878D01*
X148870806Y-98640154D01*
X148907582Y-98615582D01*
X148938908Y-98568700D01*
X149004941Y-98469875D01*
X149019330Y-98397536D01*
X149030500Y-98341381D01*
X149030500Y-98341377D01*
X149039128Y-98298000D01*
X149030500Y-98254623D01*
X149030500Y-98088884D01*
X149047545Y-98085494D01*
X149130239Y-98030239D01*
X149175000Y-97963250D01*
X149219761Y-98030239D01*
X149302455Y-98085494D01*
X149400000Y-98104897D01*
X150200000Y-98104897D01*
X150297545Y-98085494D01*
X150380239Y-98030239D01*
X150425000Y-97963250D01*
X150469761Y-98030239D01*
X150552455Y-98085494D01*
X150605220Y-98095990D01*
X150600804Y-98100406D01*
X150526008Y-98280979D01*
X150526008Y-98476431D01*
X150550475Y-98535500D01*
X150505897Y-98535500D01*
X150505897Y-98446000D01*
X150486494Y-98348455D01*
X150431239Y-98265761D01*
X150348545Y-98210506D01*
X150251000Y-98191103D01*
X149601000Y-98191103D01*
X149503455Y-98210506D01*
X149420761Y-98265761D01*
X149365506Y-98348455D01*
X149346103Y-98446000D01*
X149346103Y-99506000D01*
X149365506Y-99603545D01*
X149420761Y-99686239D01*
X149503455Y-99741494D01*
X149601000Y-99760897D01*
X150251000Y-99760897D01*
X150348545Y-99741494D01*
X150431239Y-99686239D01*
X150486494Y-99603545D01*
X150505897Y-99506000D01*
X150505897Y-99449397D01*
X150544126Y-99474941D01*
X150672619Y-99500500D01*
X150672624Y-99500500D01*
X150695235Y-99504998D01*
X150577860Y-99622373D01*
X150503064Y-99802946D01*
X150503064Y-99998398D01*
X150577860Y-100178971D01*
X150716065Y-100317176D01*
X150896638Y-100391972D01*
X151092090Y-100391972D01*
X151214732Y-100341172D01*
X151279212Y-100341172D01*
X151370539Y-100432500D01*
X151320761Y-100465761D01*
X151299604Y-100497424D01*
X151235809Y-100471000D01*
X151060250Y-100471000D01*
X151016500Y-100514750D01*
X151016500Y-101035500D01*
X151036500Y-101035500D01*
X151036500Y-101316500D01*
X151016500Y-101316500D01*
X151016500Y-101837250D01*
X151060250Y-101881000D01*
X151235809Y-101881000D01*
X151299604Y-101854576D01*
X151320761Y-101886239D01*
X151403455Y-101941494D01*
X151501000Y-101960897D01*
X152151000Y-101960897D01*
X152248545Y-101941494D01*
X152331239Y-101886239D01*
X152386494Y-101803545D01*
X152405897Y-101706000D01*
X152405897Y-101530250D01*
X153049000Y-101530250D01*
X153049000Y-101955810D01*
X153075642Y-102020130D01*
X153124871Y-102069358D01*
X153189191Y-102096000D01*
X153739750Y-102096000D01*
X153783500Y-102052250D01*
X153783500Y-101486500D01*
X153092750Y-101486500D01*
X153049000Y-101530250D01*
X152405897Y-101530250D01*
X152405897Y-100736190D01*
X153049000Y-100736190D01*
X153049000Y-101161750D01*
X153092750Y-101205500D01*
X153783500Y-101205500D01*
X153783500Y-100639750D01*
X153739750Y-100596000D01*
X153189191Y-100596000D01*
X153124871Y-100622642D01*
X153075642Y-100671870D01*
X153049000Y-100736190D01*
X152405897Y-100736190D01*
X152405897Y-100646000D01*
X152386494Y-100548455D01*
X152331239Y-100465761D01*
X152266500Y-100422503D01*
X152266500Y-100308381D01*
X152275129Y-100265000D01*
X152240941Y-100093125D01*
X152168155Y-99984194D01*
X152143582Y-99947418D01*
X152106806Y-99922845D01*
X151944857Y-99760897D01*
X152151000Y-99760897D01*
X152248545Y-99741494D01*
X152331239Y-99686239D01*
X152386494Y-99603545D01*
X152405897Y-99506000D01*
X152405897Y-99302200D01*
X152969103Y-99302200D01*
X152969103Y-99621001D01*
X153007536Y-99814216D01*
X153116984Y-99978016D01*
X153280784Y-100087464D01*
X153473999Y-100125897D01*
X154374001Y-100125897D01*
X154567216Y-100087464D01*
X154700000Y-99998740D01*
X154700000Y-100613062D01*
X154658809Y-100596000D01*
X154108250Y-100596000D01*
X154064500Y-100639750D01*
X154064500Y-101205500D01*
X154084500Y-101205500D01*
X154084500Y-101486500D01*
X154064500Y-101486500D01*
X154064500Y-102052250D01*
X154108250Y-102096000D01*
X154658809Y-102096000D01*
X154700000Y-102078938D01*
X154700000Y-102381479D01*
X154678000Y-102377103D01*
X153848825Y-102377103D01*
X153832504Y-102337701D01*
X153694299Y-102199496D01*
X153513726Y-102124700D01*
X153318274Y-102124700D01*
X153137701Y-102199496D01*
X152999496Y-102337701D01*
X152924700Y-102518274D01*
X152924700Y-102713726D01*
X152975500Y-102836368D01*
X152975500Y-103000629D01*
X152975501Y-103000633D01*
X152975500Y-103328000D01*
X152900897Y-103328000D01*
X152900897Y-102632000D01*
X152881494Y-102534455D01*
X152826239Y-102451761D01*
X152743545Y-102396506D01*
X152646000Y-102377103D01*
X151646000Y-102377103D01*
X151548455Y-102396506D01*
X151521451Y-102414549D01*
X151414690Y-102307788D01*
X151234117Y-102232992D01*
X151038665Y-102232992D01*
X150858092Y-102307788D01*
X150719887Y-102445993D01*
X150645091Y-102626566D01*
X150645091Y-102822018D01*
X150719887Y-103002591D01*
X150854471Y-103137175D01*
X150854471Y-103286946D01*
X150848081Y-103319071D01*
X150849857Y-103328000D01*
X150614897Y-103328000D01*
X150614897Y-102632000D01*
X150595494Y-102534455D01*
X150540239Y-102451761D01*
X150457545Y-102396506D01*
X150360000Y-102377103D01*
X150300500Y-102377103D01*
X150300500Y-102294375D01*
X150309128Y-102250999D01*
X150300500Y-102207624D01*
X150300500Y-102207619D01*
X150274941Y-102079126D01*
X150195943Y-101960897D01*
X150251000Y-101960897D01*
X150348545Y-101941494D01*
X150431239Y-101886239D01*
X150452396Y-101854576D01*
X150516191Y-101881000D01*
X150691750Y-101881000D01*
X150735500Y-101837250D01*
X150735500Y-101316500D01*
X150715500Y-101316500D01*
X150715500Y-101035500D01*
X150735500Y-101035500D01*
X150735500Y-100514750D01*
X150691750Y-100471000D01*
X150516191Y-100471000D01*
X150452396Y-100497424D01*
X150431239Y-100465761D01*
X150348545Y-100410506D01*
X150251000Y-100391103D01*
X149601000Y-100391103D01*
X149503455Y-100410506D01*
X149420761Y-100465761D01*
X149365506Y-100548455D01*
X149346103Y-100646000D01*
X149346103Y-100842000D01*
X148647156Y-100842000D01*
X148619464Y-100702784D01*
X148510016Y-100538984D01*
X148346216Y-100429536D01*
X148153001Y-100391103D01*
X147502999Y-100391103D01*
X147309784Y-100429536D01*
X147145984Y-100538984D01*
X147036536Y-100702784D01*
X146998103Y-100895999D01*
X146998103Y-101796001D01*
X147036536Y-101989216D01*
X147070001Y-102039299D01*
X147070001Y-102377899D01*
X146976455Y-102396506D01*
X146893761Y-102451761D01*
X146838506Y-102534455D01*
X146819103Y-102632000D01*
X146819103Y-103328000D01*
X146217000Y-103328000D01*
X146217000Y-102597191D01*
X146190358Y-102532871D01*
X146141130Y-102483642D01*
X146076810Y-102457000D01*
X145726250Y-102457000D01*
X145682500Y-102500750D01*
X145682500Y-103328000D01*
X145401500Y-103328000D01*
X145401500Y-102500750D01*
X145357750Y-102457000D01*
X145007190Y-102457000D01*
X145000000Y-102459978D01*
X145000000Y-101530250D01*
X145028000Y-101530250D01*
X145028000Y-102080809D01*
X145054642Y-102145129D01*
X145103870Y-102194358D01*
X145168190Y-102221000D01*
X145593750Y-102221000D01*
X145637500Y-102177250D01*
X145637500Y-101486500D01*
X145918500Y-101486500D01*
X145918500Y-102177250D01*
X145962250Y-102221000D01*
X146387810Y-102221000D01*
X146452130Y-102194358D01*
X146501358Y-102145129D01*
X146528000Y-102080809D01*
X146528000Y-101530250D01*
X146484250Y-101486500D01*
X145918500Y-101486500D01*
X145637500Y-101486500D01*
X145071750Y-101486500D01*
X145028000Y-101530250D01*
X145000000Y-101530250D01*
X145000000Y-100611191D01*
X145028000Y-100611191D01*
X145028000Y-101161750D01*
X145071750Y-101205500D01*
X145637500Y-101205500D01*
X145637500Y-100514750D01*
X145918500Y-100514750D01*
X145918500Y-101205500D01*
X146484250Y-101205500D01*
X146528000Y-101161750D01*
X146528000Y-100611191D01*
X146501358Y-100546871D01*
X146452130Y-100497642D01*
X146387810Y-100471000D01*
X145962250Y-100471000D01*
X145918500Y-100514750D01*
X145637500Y-100514750D01*
X145593750Y-100471000D01*
X145168190Y-100471000D01*
X145103870Y-100497642D01*
X145054642Y-100546871D01*
X145028000Y-100611191D01*
X145000000Y-100611191D01*
X145000000Y-99498250D01*
X145028000Y-99498250D01*
X145028000Y-100048809D01*
X145054642Y-100113129D01*
X145103870Y-100162358D01*
X145168190Y-100189000D01*
X145593750Y-100189000D01*
X145637500Y-100145250D01*
X145637500Y-99454500D01*
X145918500Y-99454500D01*
X145918500Y-100145250D01*
X145962250Y-100189000D01*
X146387810Y-100189000D01*
X146452130Y-100162358D01*
X146501358Y-100113129D01*
X146528000Y-100048809D01*
X146528000Y-99498250D01*
X146484250Y-99454500D01*
X145918500Y-99454500D01*
X145637500Y-99454500D01*
X145071750Y-99454500D01*
X145028000Y-99498250D01*
X145000000Y-99498250D01*
X145000000Y-98579191D01*
X145028000Y-98579191D01*
X145028000Y-99129750D01*
X145071750Y-99173500D01*
X145637500Y-99173500D01*
X145637500Y-98482750D01*
X145918500Y-98482750D01*
X145918500Y-99173500D01*
X146484250Y-99173500D01*
X146528000Y-99129750D01*
X146528000Y-98579191D01*
X146501358Y-98514871D01*
X146452130Y-98465642D01*
X146387810Y-98439000D01*
X145962250Y-98439000D01*
X145918500Y-98482750D01*
X145637500Y-98482750D01*
X145593750Y-98439000D01*
X145168190Y-98439000D01*
X145103870Y-98465642D01*
X145054642Y-98514871D01*
X145028000Y-98579191D01*
X145000000Y-98579191D01*
X145000000Y-97284250D01*
X146725000Y-97284250D01*
X146725000Y-97884809D01*
X146751642Y-97949129D01*
X146800870Y-97998358D01*
X146865190Y-98025000D01*
X147115750Y-98025000D01*
X147159500Y-97981250D01*
X147159500Y-97240500D01*
X147440500Y-97240500D01*
X147440500Y-97981250D01*
X147484250Y-98025000D01*
X147734810Y-98025000D01*
X147799130Y-97998358D01*
X147848358Y-97949129D01*
X147875000Y-97884809D01*
X147875000Y-97284250D01*
X147831250Y-97240500D01*
X147440500Y-97240500D01*
X147159500Y-97240500D01*
X146768750Y-97240500D01*
X146725000Y-97284250D01*
X145000000Y-97284250D01*
X145000000Y-96315191D01*
X146725000Y-96315191D01*
X146725000Y-96915750D01*
X146768750Y-96959500D01*
X147159500Y-96959500D01*
X147159500Y-96218750D01*
X147440500Y-96218750D01*
X147440500Y-96959500D01*
X147831250Y-96959500D01*
X147875000Y-96915750D01*
X147875000Y-96315191D01*
X147848358Y-96250871D01*
X147799130Y-96201642D01*
X147734810Y-96175000D01*
X147484250Y-96175000D01*
X147440500Y-96218750D01*
X147159500Y-96218750D01*
X147115750Y-96175000D01*
X146865190Y-96175000D01*
X146800870Y-96201642D01*
X146751642Y-96250871D01*
X146725000Y-96315191D01*
X145000000Y-96315191D01*
X145000000Y-96244951D01*
X145050000Y-96254897D01*
X146550000Y-96254897D01*
X146647545Y-96235494D01*
X146730239Y-96180239D01*
X146785494Y-96097545D01*
X146804897Y-96000000D01*
X146804897Y-95200000D01*
X146785494Y-95102455D01*
X146730239Y-95019761D01*
X146663250Y-94975000D01*
X146730239Y-94930239D01*
X146785494Y-94847545D01*
X146804897Y-94750000D01*
X146804897Y-93950000D01*
X146785494Y-93852455D01*
X146730239Y-93769761D01*
X146663250Y-93725000D01*
X146730239Y-93680239D01*
X146785494Y-93597545D01*
X146804897Y-93500000D01*
X146804897Y-93284250D01*
X147225000Y-93284250D01*
X147225000Y-95534809D01*
X147251642Y-95599129D01*
X147300870Y-95648358D01*
X147365190Y-95675000D01*
X149615750Y-95675000D01*
X149659500Y-95631250D01*
X149659500Y-93240500D01*
X149940500Y-93240500D01*
X149940500Y-95631250D01*
X149984250Y-95675000D01*
X152234810Y-95675000D01*
X152299130Y-95648358D01*
X152348358Y-95599129D01*
X152375000Y-95534809D01*
X152375000Y-93284250D01*
X152331250Y-93240500D01*
X149940500Y-93240500D01*
X149659500Y-93240500D01*
X147268750Y-93240500D01*
X147225000Y-93284250D01*
X146804897Y-93284250D01*
X146804897Y-92700000D01*
X146785494Y-92602455D01*
X146730239Y-92519761D01*
X146663250Y-92475000D01*
X146730239Y-92430239D01*
X146785494Y-92347545D01*
X146804897Y-92250000D01*
X146804897Y-91450000D01*
X146785494Y-91352455D01*
X146730239Y-91269761D01*
X146647545Y-91214506D01*
X146550000Y-91195103D01*
X146357994Y-91195103D01*
X146380239Y-91180239D01*
X146435494Y-91097545D01*
X146454897Y-91000000D01*
X146454897Y-90665191D01*
X147225000Y-90665191D01*
X147225000Y-92915750D01*
X147268750Y-92959500D01*
X149659500Y-92959500D01*
X149659500Y-90568750D01*
X149940500Y-90568750D01*
X149940500Y-92959500D01*
X152331250Y-92959500D01*
X152375000Y-92915750D01*
X152375000Y-90665191D01*
X152348358Y-90600871D01*
X152299130Y-90551642D01*
X152234810Y-90525000D01*
X149984250Y-90525000D01*
X149940500Y-90568750D01*
X149659500Y-90568750D01*
X149615750Y-90525000D01*
X147365190Y-90525000D01*
X147300870Y-90551642D01*
X147251642Y-90600871D01*
X147225000Y-90665191D01*
X146454897Y-90665191D01*
X146454897Y-90200000D01*
X146435494Y-90102455D01*
X146380239Y-90019761D01*
X146297545Y-89964506D01*
X146200000Y-89945103D01*
X145400000Y-89945103D01*
X145302455Y-89964506D01*
X145219761Y-90019761D01*
X145164506Y-90102455D01*
X145145103Y-90200000D01*
X145145103Y-91000000D01*
X145164506Y-91097545D01*
X145219761Y-91180239D01*
X145242006Y-91195103D01*
X145050000Y-91195103D01*
X145000000Y-91205049D01*
X145000000Y-89284250D01*
X146725000Y-89284250D01*
X146725000Y-89884809D01*
X146751642Y-89949129D01*
X146800870Y-89998358D01*
X146865190Y-90025000D01*
X147115750Y-90025000D01*
X147159500Y-89981250D01*
X147159500Y-89240500D01*
X147440500Y-89240500D01*
X147440500Y-89981250D01*
X147484250Y-90025000D01*
X147734810Y-90025000D01*
X147799130Y-89998358D01*
X147848358Y-89949129D01*
X147875000Y-89884809D01*
X147875000Y-89284250D01*
X147831250Y-89240500D01*
X147440500Y-89240500D01*
X147159500Y-89240500D01*
X146768750Y-89240500D01*
X146725000Y-89284250D01*
X145000000Y-89284250D01*
X145000000Y-88300000D01*
X146731292Y-88300000D01*
X146725000Y-88315191D01*
G36*
X154700000Y-98593260D02*
X154567216Y-98504536D01*
X154374001Y-98466103D01*
X153473999Y-98466103D01*
X153280784Y-98504536D01*
X153116984Y-98613984D01*
X153093052Y-98649800D01*
X152405897Y-98649800D01*
X152405897Y-98446000D01*
X152386494Y-98348455D01*
X152331239Y-98265761D01*
X152248545Y-98210506D01*
X152151000Y-98191103D01*
X151501000Y-98191103D01*
X151490500Y-98193192D01*
X151490500Y-98096841D01*
X151547545Y-98085494D01*
X151630239Y-98030239D01*
X151675000Y-97963250D01*
X151719761Y-98030239D01*
X151802455Y-98085494D01*
X151900000Y-98104897D01*
X152700000Y-98104897D01*
X152797545Y-98085494D01*
X152880239Y-98030239D01*
X152935494Y-97947545D01*
X152954897Y-97850000D01*
X152954897Y-97540500D01*
X153195632Y-97540500D01*
X153318274Y-97591300D01*
X153513726Y-97591300D01*
X153694299Y-97516504D01*
X153832504Y-97378299D01*
X153907300Y-97197726D01*
X153907300Y-97002274D01*
X153832504Y-96821701D01*
X153694299Y-96683496D01*
X153513726Y-96608700D01*
X153318274Y-96608700D01*
X153195632Y-96659500D01*
X152954897Y-96659500D01*
X152954897Y-96350000D01*
X152935494Y-96252455D01*
X152901339Y-96201339D01*
X152952455Y-96235494D01*
X153050000Y-96254897D01*
X154550000Y-96254897D01*
X154647545Y-96235494D01*
X154700001Y-96200444D01*
X154700000Y-98593260D01*
X154700000Y-98593260D01*
G37*
X154700000Y-98593260D02*
X154567216Y-98504536D01*
X154374001Y-98466103D01*
X153473999Y-98466103D01*
X153280784Y-98504536D01*
X153116984Y-98613984D01*
X153093052Y-98649800D01*
X152405897Y-98649800D01*
X152405897Y-98446000D01*
X152386494Y-98348455D01*
X152331239Y-98265761D01*
X152248545Y-98210506D01*
X152151000Y-98191103D01*
X151501000Y-98191103D01*
X151490500Y-98193192D01*
X151490500Y-98096841D01*
X151547545Y-98085494D01*
X151630239Y-98030239D01*
X151675000Y-97963250D01*
X151719761Y-98030239D01*
X151802455Y-98085494D01*
X151900000Y-98104897D01*
X152700000Y-98104897D01*
X152797545Y-98085494D01*
X152880239Y-98030239D01*
X152935494Y-97947545D01*
X152954897Y-97850000D01*
X152954897Y-97540500D01*
X153195632Y-97540500D01*
X153318274Y-97591300D01*
X153513726Y-97591300D01*
X153694299Y-97516504D01*
X153832504Y-97378299D01*
X153907300Y-97197726D01*
X153907300Y-97002274D01*
X153832504Y-96821701D01*
X153694299Y-96683496D01*
X153513726Y-96608700D01*
X153318274Y-96608700D01*
X153195632Y-96659500D01*
X152954897Y-96659500D01*
X152954897Y-96350000D01*
X152935494Y-96252455D01*
X152901339Y-96201339D01*
X152952455Y-96235494D01*
X153050000Y-96254897D01*
X154550000Y-96254897D01*
X154647545Y-96235494D01*
X154700001Y-96200444D01*
X154700000Y-98593260D01*
G36*
X154700001Y-89999556D02*
X154647545Y-89964506D01*
X154550000Y-89945103D01*
X153050000Y-89945103D01*
X152952455Y-89964506D01*
X152901339Y-89998661D01*
X152935494Y-89947545D01*
X152954897Y-89850000D01*
X152954897Y-88350000D01*
X152944951Y-88300000D01*
X154700001Y-88300000D01*
X154700001Y-89999556D01*
X154700001Y-89999556D01*
G37*
X154700001Y-89999556D02*
X154647545Y-89964506D01*
X154550000Y-89945103D01*
X153050000Y-89945103D01*
X152952455Y-89964506D01*
X152901339Y-89998661D01*
X152935494Y-89947545D01*
X152954897Y-89850000D01*
X152954897Y-88350000D01*
X152944951Y-88300000D01*
X154700001Y-88300000D01*
X154700001Y-89999556D01*
G04 #@! TD*
M02*
