G04 #@! TF.GenerationSoftware,KiCad,Pcbnew,5.0.2+dfsg1-1*
G04 #@! TF.CreationDate,2021-08-23T09:22:29-10:00*
G04 #@! TF.ProjectId,watchy-scd40,77617463-6879-42d7-9363-6434302e6b69,rev?*
G04 #@! TF.SameCoordinates,Original*
G04 #@! TF.FileFunction,Legend,Top*
G04 #@! TF.FilePolarity,Positive*
%FSLAX46Y46*%
G04 Gerber Fmt 4.6, Leading zero omitted, Abs format (unit mm)*
G04 Created by KiCad (PCBNEW 5.0.2+dfsg1-1) date Mon 23 Aug 2021 09:22:29 AM HST*
%MOMM*%
%LPD*%
G01*
G04 APERTURE LIST*
%ADD10C,0.127000*%
%ADD11C,0.120000*%
%ADD12C,0.100000*%
%ADD13R,1.100000X2.100000*%
%ADD14C,5.003200*%
%ADD15R,1.003200X1.003200*%
%ADD16R,1.703200X1.003200*%
%ADD17R,1.003200X1.703200*%
%ADD18C,1.250000*%
%ADD19R,0.750000X1.160000*%
G04 APERTURE END LIST*
D10*
G04 #@! TO.C,U1*
X152300000Y-90600000D02*
X152300000Y-95600000D01*
X147300000Y-95600000D02*
X147300000Y-91400000D01*
X152300000Y-95600000D02*
X147300000Y-95600000D01*
X147300000Y-91400000D02*
X148100000Y-90600000D01*
X152300000Y-90600000D02*
X148100000Y-90600000D01*
X145725000Y-88725000D02*
G75*
G03X145725000Y-88725000I-300000J0D01*
G01*
X144700000Y-98200000D02*
X146300000Y-98200000D01*
X144700000Y-98200000D02*
X144700000Y-96600000D01*
X154900000Y-98200000D02*
X154900000Y-96600000D01*
X154900000Y-98200000D02*
X153300000Y-98200000D01*
X154900000Y-88000000D02*
X153300000Y-88000000D01*
X154900000Y-88000000D02*
X154900000Y-89600000D01*
X144700000Y-88000000D02*
X144700000Y-89600000D01*
X144700000Y-88000000D02*
X146300000Y-88000000D01*
D11*
G04 #@! TO.C,C3*
X147064252Y-98604000D02*
X146541748Y-98604000D01*
X147064252Y-100024000D02*
X146541748Y-100024000D01*
G04 #@! TO.C,C2*
X153214000Y-100059748D02*
X153214000Y-100582252D01*
X154634000Y-100059748D02*
X154634000Y-100582252D01*
G04 #@! TO.C,C1*
X147064252Y-100636000D02*
X146541748Y-100636000D01*
X147064252Y-102056000D02*
X146541748Y-102056000D01*
G04 #@! TO.C,U2*
X149266000Y-99176000D02*
X149266000Y-101626000D01*
X152486000Y-100976000D02*
X152486000Y-99176000D01*
G04 #@! TD*
%LPC*%
D12*
G04 #@! TO.C,U1*
G36*
X146350000Y-90100000D02*
X146650000Y-90400000D01*
X146650000Y-91100000D01*
X144950000Y-91100000D01*
X144950000Y-90100000D01*
X146350000Y-90100000D01*
G37*
G04 #@! TD*
D13*
G04 #@! TO.C,TP5*
X145542000Y-103632000D03*
G04 #@! TD*
G04 #@! TO.C,TP4*
X154178000Y-103632000D03*
G04 #@! TD*
G04 #@! TO.C,TP3*
X152146000Y-103632000D03*
G04 #@! TD*
G04 #@! TO.C,TP2*
X149860000Y-103632000D03*
G04 #@! TD*
G04 #@! TO.C,TP1*
X147574000Y-103632000D03*
G04 #@! TD*
D12*
G04 #@! TO.C,U1*
G36*
X152188780Y-90599002D02*
X152200922Y-90600803D01*
X152212829Y-90603786D01*
X152224386Y-90607921D01*
X152235482Y-90613169D01*
X152246011Y-90619480D01*
X152255870Y-90626792D01*
X152264965Y-90635035D01*
X152273208Y-90644130D01*
X152280520Y-90653989D01*
X152286831Y-90664518D01*
X152292079Y-90675614D01*
X152296214Y-90687171D01*
X152299197Y-90699078D01*
X152300998Y-90711220D01*
X152301600Y-90723480D01*
X152301600Y-95476520D01*
X152300998Y-95488780D01*
X152299197Y-95500922D01*
X152296214Y-95512829D01*
X152292079Y-95524386D01*
X152286831Y-95535482D01*
X152280520Y-95546011D01*
X152273208Y-95555870D01*
X152264965Y-95564965D01*
X152255870Y-95573208D01*
X152246011Y-95580520D01*
X152235482Y-95586831D01*
X152224386Y-95592079D01*
X152212829Y-95596214D01*
X152200922Y-95599197D01*
X152188780Y-95600998D01*
X152176520Y-95601600D01*
X147423480Y-95601600D01*
X147411220Y-95600998D01*
X147399078Y-95599197D01*
X147387171Y-95596214D01*
X147375614Y-95592079D01*
X147364518Y-95586831D01*
X147353989Y-95580520D01*
X147344130Y-95573208D01*
X147335035Y-95564965D01*
X147326792Y-95555870D01*
X147319480Y-95546011D01*
X147313169Y-95535482D01*
X147307921Y-95524386D01*
X147303786Y-95512829D01*
X147300803Y-95500922D01*
X147299002Y-95488780D01*
X147298400Y-95476520D01*
X147298400Y-90723480D01*
X147299002Y-90711220D01*
X147300803Y-90699078D01*
X147303786Y-90687171D01*
X147307921Y-90675614D01*
X147313169Y-90664518D01*
X147319480Y-90653989D01*
X147326792Y-90644130D01*
X147335035Y-90635035D01*
X147344130Y-90626792D01*
X147353989Y-90619480D01*
X147364518Y-90613169D01*
X147375614Y-90607921D01*
X147387171Y-90603786D01*
X147399078Y-90600803D01*
X147411220Y-90599002D01*
X147423480Y-90598400D01*
X152176520Y-90598400D01*
X152188780Y-90599002D01*
X152188780Y-90599002D01*
G37*
D14*
X149800000Y-93100000D03*
D15*
X145800000Y-90600000D03*
D16*
X145800000Y-91850000D03*
X145800000Y-93100000D03*
X145800000Y-94350000D03*
X145800000Y-95600000D03*
D17*
X147300000Y-97100000D03*
X148550000Y-97100000D03*
X149800000Y-97100000D03*
X151050000Y-97100000D03*
X152300000Y-97100000D03*
D16*
X153800000Y-95600000D03*
X153800000Y-94350000D03*
X153800000Y-93100000D03*
X153800000Y-91850000D03*
X153800000Y-90600000D03*
D17*
X152300000Y-89100000D03*
X151050000Y-89100000D03*
X149800000Y-89100000D03*
X148550000Y-89100000D03*
X147300000Y-89100000D03*
G04 #@! TD*
D12*
G04 #@! TO.C,C3*
G36*
X146157897Y-98565308D02*
X146184275Y-98569221D01*
X146210143Y-98575701D01*
X146235252Y-98584685D01*
X146259358Y-98596086D01*
X146282232Y-98609796D01*
X146303651Y-98625682D01*
X146323410Y-98643590D01*
X146341318Y-98663349D01*
X146357204Y-98684768D01*
X146370914Y-98707642D01*
X146382315Y-98731748D01*
X146391299Y-98756857D01*
X146397779Y-98782725D01*
X146401692Y-98809103D01*
X146403000Y-98835738D01*
X146403000Y-99792262D01*
X146401692Y-99818897D01*
X146397779Y-99845275D01*
X146391299Y-99871143D01*
X146382315Y-99896252D01*
X146370914Y-99920358D01*
X146357204Y-99943232D01*
X146341318Y-99964651D01*
X146323410Y-99984410D01*
X146303651Y-100002318D01*
X146282232Y-100018204D01*
X146259358Y-100031914D01*
X146235252Y-100043315D01*
X146210143Y-100052299D01*
X146184275Y-100058779D01*
X146157897Y-100062692D01*
X146131262Y-100064000D01*
X145424738Y-100064000D01*
X145398103Y-100062692D01*
X145371725Y-100058779D01*
X145345857Y-100052299D01*
X145320748Y-100043315D01*
X145296642Y-100031914D01*
X145273768Y-100018204D01*
X145252349Y-100002318D01*
X145232590Y-99984410D01*
X145214682Y-99964651D01*
X145198796Y-99943232D01*
X145185086Y-99920358D01*
X145173685Y-99896252D01*
X145164701Y-99871143D01*
X145158221Y-99845275D01*
X145154308Y-99818897D01*
X145153000Y-99792262D01*
X145153000Y-98835738D01*
X145154308Y-98809103D01*
X145158221Y-98782725D01*
X145164701Y-98756857D01*
X145173685Y-98731748D01*
X145185086Y-98707642D01*
X145198796Y-98684768D01*
X145214682Y-98663349D01*
X145232590Y-98643590D01*
X145252349Y-98625682D01*
X145273768Y-98609796D01*
X145296642Y-98596086D01*
X145320748Y-98584685D01*
X145345857Y-98575701D01*
X145371725Y-98569221D01*
X145398103Y-98565308D01*
X145424738Y-98564000D01*
X146131262Y-98564000D01*
X146157897Y-98565308D01*
X146157897Y-98565308D01*
G37*
D18*
X145778000Y-99314000D03*
D12*
G36*
X148207897Y-98565308D02*
X148234275Y-98569221D01*
X148260143Y-98575701D01*
X148285252Y-98584685D01*
X148309358Y-98596086D01*
X148332232Y-98609796D01*
X148353651Y-98625682D01*
X148373410Y-98643590D01*
X148391318Y-98663349D01*
X148407204Y-98684768D01*
X148420914Y-98707642D01*
X148432315Y-98731748D01*
X148441299Y-98756857D01*
X148447779Y-98782725D01*
X148451692Y-98809103D01*
X148453000Y-98835738D01*
X148453000Y-99792262D01*
X148451692Y-99818897D01*
X148447779Y-99845275D01*
X148441299Y-99871143D01*
X148432315Y-99896252D01*
X148420914Y-99920358D01*
X148407204Y-99943232D01*
X148391318Y-99964651D01*
X148373410Y-99984410D01*
X148353651Y-100002318D01*
X148332232Y-100018204D01*
X148309358Y-100031914D01*
X148285252Y-100043315D01*
X148260143Y-100052299D01*
X148234275Y-100058779D01*
X148207897Y-100062692D01*
X148181262Y-100064000D01*
X147474738Y-100064000D01*
X147448103Y-100062692D01*
X147421725Y-100058779D01*
X147395857Y-100052299D01*
X147370748Y-100043315D01*
X147346642Y-100031914D01*
X147323768Y-100018204D01*
X147302349Y-100002318D01*
X147282590Y-99984410D01*
X147264682Y-99964651D01*
X147248796Y-99943232D01*
X147235086Y-99920358D01*
X147223685Y-99896252D01*
X147214701Y-99871143D01*
X147208221Y-99845275D01*
X147204308Y-99818897D01*
X147203000Y-99792262D01*
X147203000Y-98835738D01*
X147204308Y-98809103D01*
X147208221Y-98782725D01*
X147214701Y-98756857D01*
X147223685Y-98731748D01*
X147235086Y-98707642D01*
X147248796Y-98684768D01*
X147264682Y-98663349D01*
X147282590Y-98643590D01*
X147302349Y-98625682D01*
X147323768Y-98609796D01*
X147346642Y-98596086D01*
X147370748Y-98584685D01*
X147395857Y-98575701D01*
X147421725Y-98569221D01*
X147448103Y-98565308D01*
X147474738Y-98564000D01*
X148181262Y-98564000D01*
X148207897Y-98565308D01*
X148207897Y-98565308D01*
G37*
D18*
X147828000Y-99314000D03*
G04 #@! TD*
D12*
G04 #@! TO.C,C2*
G36*
X154428897Y-100722308D02*
X154455275Y-100726221D01*
X154481143Y-100732701D01*
X154506252Y-100741685D01*
X154530358Y-100753086D01*
X154553232Y-100766796D01*
X154574651Y-100782682D01*
X154594410Y-100800590D01*
X154612318Y-100820349D01*
X154628204Y-100841768D01*
X154641914Y-100864642D01*
X154653315Y-100888748D01*
X154662299Y-100913857D01*
X154668779Y-100939725D01*
X154672692Y-100966103D01*
X154674000Y-100992738D01*
X154674000Y-101699262D01*
X154672692Y-101725897D01*
X154668779Y-101752275D01*
X154662299Y-101778143D01*
X154653315Y-101803252D01*
X154641914Y-101827358D01*
X154628204Y-101850232D01*
X154612318Y-101871651D01*
X154594410Y-101891410D01*
X154574651Y-101909318D01*
X154553232Y-101925204D01*
X154530358Y-101938914D01*
X154506252Y-101950315D01*
X154481143Y-101959299D01*
X154455275Y-101965779D01*
X154428897Y-101969692D01*
X154402262Y-101971000D01*
X153445738Y-101971000D01*
X153419103Y-101969692D01*
X153392725Y-101965779D01*
X153366857Y-101959299D01*
X153341748Y-101950315D01*
X153317642Y-101938914D01*
X153294768Y-101925204D01*
X153273349Y-101909318D01*
X153253590Y-101891410D01*
X153235682Y-101871651D01*
X153219796Y-101850232D01*
X153206086Y-101827358D01*
X153194685Y-101803252D01*
X153185701Y-101778143D01*
X153179221Y-101752275D01*
X153175308Y-101725897D01*
X153174000Y-101699262D01*
X153174000Y-100992738D01*
X153175308Y-100966103D01*
X153179221Y-100939725D01*
X153185701Y-100913857D01*
X153194685Y-100888748D01*
X153206086Y-100864642D01*
X153219796Y-100841768D01*
X153235682Y-100820349D01*
X153253590Y-100800590D01*
X153273349Y-100782682D01*
X153294768Y-100766796D01*
X153317642Y-100753086D01*
X153341748Y-100741685D01*
X153366857Y-100732701D01*
X153392725Y-100726221D01*
X153419103Y-100722308D01*
X153445738Y-100721000D01*
X154402262Y-100721000D01*
X154428897Y-100722308D01*
X154428897Y-100722308D01*
G37*
D18*
X153924000Y-101346000D03*
D12*
G36*
X154428897Y-98672308D02*
X154455275Y-98676221D01*
X154481143Y-98682701D01*
X154506252Y-98691685D01*
X154530358Y-98703086D01*
X154553232Y-98716796D01*
X154574651Y-98732682D01*
X154594410Y-98750590D01*
X154612318Y-98770349D01*
X154628204Y-98791768D01*
X154641914Y-98814642D01*
X154653315Y-98838748D01*
X154662299Y-98863857D01*
X154668779Y-98889725D01*
X154672692Y-98916103D01*
X154674000Y-98942738D01*
X154674000Y-99649262D01*
X154672692Y-99675897D01*
X154668779Y-99702275D01*
X154662299Y-99728143D01*
X154653315Y-99753252D01*
X154641914Y-99777358D01*
X154628204Y-99800232D01*
X154612318Y-99821651D01*
X154594410Y-99841410D01*
X154574651Y-99859318D01*
X154553232Y-99875204D01*
X154530358Y-99888914D01*
X154506252Y-99900315D01*
X154481143Y-99909299D01*
X154455275Y-99915779D01*
X154428897Y-99919692D01*
X154402262Y-99921000D01*
X153445738Y-99921000D01*
X153419103Y-99919692D01*
X153392725Y-99915779D01*
X153366857Y-99909299D01*
X153341748Y-99900315D01*
X153317642Y-99888914D01*
X153294768Y-99875204D01*
X153273349Y-99859318D01*
X153253590Y-99841410D01*
X153235682Y-99821651D01*
X153219796Y-99800232D01*
X153206086Y-99777358D01*
X153194685Y-99753252D01*
X153185701Y-99728143D01*
X153179221Y-99702275D01*
X153175308Y-99675897D01*
X153174000Y-99649262D01*
X153174000Y-98942738D01*
X153175308Y-98916103D01*
X153179221Y-98889725D01*
X153185701Y-98863857D01*
X153194685Y-98838748D01*
X153206086Y-98814642D01*
X153219796Y-98791768D01*
X153235682Y-98770349D01*
X153253590Y-98750590D01*
X153273349Y-98732682D01*
X153294768Y-98716796D01*
X153317642Y-98703086D01*
X153341748Y-98691685D01*
X153366857Y-98682701D01*
X153392725Y-98676221D01*
X153419103Y-98672308D01*
X153445738Y-98671000D01*
X154402262Y-98671000D01*
X154428897Y-98672308D01*
X154428897Y-98672308D01*
G37*
D18*
X153924000Y-99296000D03*
G04 #@! TD*
D12*
G04 #@! TO.C,C1*
G36*
X146157897Y-100597308D02*
X146184275Y-100601221D01*
X146210143Y-100607701D01*
X146235252Y-100616685D01*
X146259358Y-100628086D01*
X146282232Y-100641796D01*
X146303651Y-100657682D01*
X146323410Y-100675590D01*
X146341318Y-100695349D01*
X146357204Y-100716768D01*
X146370914Y-100739642D01*
X146382315Y-100763748D01*
X146391299Y-100788857D01*
X146397779Y-100814725D01*
X146401692Y-100841103D01*
X146403000Y-100867738D01*
X146403000Y-101824262D01*
X146401692Y-101850897D01*
X146397779Y-101877275D01*
X146391299Y-101903143D01*
X146382315Y-101928252D01*
X146370914Y-101952358D01*
X146357204Y-101975232D01*
X146341318Y-101996651D01*
X146323410Y-102016410D01*
X146303651Y-102034318D01*
X146282232Y-102050204D01*
X146259358Y-102063914D01*
X146235252Y-102075315D01*
X146210143Y-102084299D01*
X146184275Y-102090779D01*
X146157897Y-102094692D01*
X146131262Y-102096000D01*
X145424738Y-102096000D01*
X145398103Y-102094692D01*
X145371725Y-102090779D01*
X145345857Y-102084299D01*
X145320748Y-102075315D01*
X145296642Y-102063914D01*
X145273768Y-102050204D01*
X145252349Y-102034318D01*
X145232590Y-102016410D01*
X145214682Y-101996651D01*
X145198796Y-101975232D01*
X145185086Y-101952358D01*
X145173685Y-101928252D01*
X145164701Y-101903143D01*
X145158221Y-101877275D01*
X145154308Y-101850897D01*
X145153000Y-101824262D01*
X145153000Y-100867738D01*
X145154308Y-100841103D01*
X145158221Y-100814725D01*
X145164701Y-100788857D01*
X145173685Y-100763748D01*
X145185086Y-100739642D01*
X145198796Y-100716768D01*
X145214682Y-100695349D01*
X145232590Y-100675590D01*
X145252349Y-100657682D01*
X145273768Y-100641796D01*
X145296642Y-100628086D01*
X145320748Y-100616685D01*
X145345857Y-100607701D01*
X145371725Y-100601221D01*
X145398103Y-100597308D01*
X145424738Y-100596000D01*
X146131262Y-100596000D01*
X146157897Y-100597308D01*
X146157897Y-100597308D01*
G37*
D18*
X145778000Y-101346000D03*
D12*
G36*
X148207897Y-100597308D02*
X148234275Y-100601221D01*
X148260143Y-100607701D01*
X148285252Y-100616685D01*
X148309358Y-100628086D01*
X148332232Y-100641796D01*
X148353651Y-100657682D01*
X148373410Y-100675590D01*
X148391318Y-100695349D01*
X148407204Y-100716768D01*
X148420914Y-100739642D01*
X148432315Y-100763748D01*
X148441299Y-100788857D01*
X148447779Y-100814725D01*
X148451692Y-100841103D01*
X148453000Y-100867738D01*
X148453000Y-101824262D01*
X148451692Y-101850897D01*
X148447779Y-101877275D01*
X148441299Y-101903143D01*
X148432315Y-101928252D01*
X148420914Y-101952358D01*
X148407204Y-101975232D01*
X148391318Y-101996651D01*
X148373410Y-102016410D01*
X148353651Y-102034318D01*
X148332232Y-102050204D01*
X148309358Y-102063914D01*
X148285252Y-102075315D01*
X148260143Y-102084299D01*
X148234275Y-102090779D01*
X148207897Y-102094692D01*
X148181262Y-102096000D01*
X147474738Y-102096000D01*
X147448103Y-102094692D01*
X147421725Y-102090779D01*
X147395857Y-102084299D01*
X147370748Y-102075315D01*
X147346642Y-102063914D01*
X147323768Y-102050204D01*
X147302349Y-102034318D01*
X147282590Y-102016410D01*
X147264682Y-101996651D01*
X147248796Y-101975232D01*
X147235086Y-101952358D01*
X147223685Y-101928252D01*
X147214701Y-101903143D01*
X147208221Y-101877275D01*
X147204308Y-101850897D01*
X147203000Y-101824262D01*
X147203000Y-100867738D01*
X147204308Y-100841103D01*
X147208221Y-100814725D01*
X147214701Y-100788857D01*
X147223685Y-100763748D01*
X147235086Y-100739642D01*
X147248796Y-100716768D01*
X147264682Y-100695349D01*
X147282590Y-100675590D01*
X147302349Y-100657682D01*
X147323768Y-100641796D01*
X147346642Y-100628086D01*
X147370748Y-100616685D01*
X147395857Y-100607701D01*
X147421725Y-100601221D01*
X147448103Y-100597308D01*
X147474738Y-100596000D01*
X148181262Y-100596000D01*
X148207897Y-100597308D01*
X148207897Y-100597308D01*
G37*
D18*
X147828000Y-101346000D03*
G04 #@! TD*
D19*
G04 #@! TO.C,U2*
X149926000Y-98976000D03*
X151826000Y-98976000D03*
X151826000Y-101176000D03*
X150876000Y-101176000D03*
X149926000Y-101176000D03*
G04 #@! TD*
M02*
