G04 #@! TF.GenerationSoftware,KiCad,Pcbnew,5.0.2+dfsg1-1*
G04 #@! TF.CreationDate,2021-08-20T18:41:43-10:00*
G04 #@! TF.ProjectId,watchy-scd40,77617463-6879-42d7-9363-6434302e6b69,rev?*
G04 #@! TF.SameCoordinates,Original*
G04 #@! TF.FileFunction,Soldermask,Bot*
G04 #@! TF.FilePolarity,Negative*
%FSLAX46Y46*%
G04 Gerber Fmt 4.6, Leading zero omitted, Abs format (unit mm)*
G04 Created by KiCad (PCBNEW 5.0.2+dfsg1-1) date Fri 20 Aug 2021 06:41:43 PM HST*
%MOMM*%
%LPD*%
G01*
G04 APERTURE LIST*
%ADD10C,0.100000*%
G04 APERTURE END LIST*
D10*
G36*
X149868198Y-98195954D02*
X149880450Y-98196556D01*
X149898869Y-98196556D01*
X149921149Y-98198750D01*
X150005236Y-98215476D01*
X150026655Y-98221974D01*
X150105871Y-98254785D01*
X150125607Y-98265335D01*
X150196897Y-98312969D01*
X150214208Y-98327176D01*
X150274824Y-98387792D01*
X150289031Y-98405103D01*
X150336665Y-98476393D01*
X150347215Y-98496129D01*
X150380026Y-98575345D01*
X150386524Y-98596764D01*
X150403250Y-98680851D01*
X150405444Y-98703131D01*
X150405444Y-98721550D01*
X150406046Y-98733802D01*
X150407852Y-98752140D01*
X150407852Y-99289860D01*
X150406263Y-99305999D01*
X150401853Y-99320534D01*
X150396393Y-99333717D01*
X150391613Y-99357751D01*
X150391613Y-99382255D01*
X150396394Y-99406288D01*
X150405772Y-99428927D01*
X150407000Y-99430765D01*
X150407000Y-100662053D01*
X150400526Y-100674165D01*
X150393413Y-100697614D01*
X150391011Y-100722000D01*
X150393413Y-100746386D01*
X150399917Y-100764564D01*
X150399773Y-100764608D01*
X150406263Y-100786001D01*
X150407852Y-100802140D01*
X150407852Y-101339861D01*
X150406046Y-101358198D01*
X150405444Y-101370450D01*
X150405444Y-101388869D01*
X150403250Y-101411149D01*
X150386524Y-101495236D01*
X150380026Y-101516655D01*
X150347215Y-101595871D01*
X150336665Y-101615607D01*
X150289031Y-101686897D01*
X150274824Y-101704208D01*
X150214208Y-101764824D01*
X150196897Y-101779031D01*
X150125607Y-101826665D01*
X150105871Y-101837215D01*
X150026655Y-101870026D01*
X150005236Y-101876524D01*
X149921149Y-101893250D01*
X149898869Y-101895444D01*
X149880450Y-101895444D01*
X149868198Y-101896046D01*
X149849861Y-101897852D01*
X149362139Y-101897852D01*
X149343802Y-101896046D01*
X149331550Y-101895444D01*
X149313131Y-101895444D01*
X149290851Y-101893250D01*
X149206764Y-101876524D01*
X149185345Y-101870026D01*
X149106129Y-101837215D01*
X149086393Y-101826665D01*
X149015103Y-101779031D01*
X148997792Y-101764824D01*
X148937176Y-101704208D01*
X148922969Y-101686897D01*
X148875335Y-101615607D01*
X148864785Y-101595871D01*
X148831974Y-101516655D01*
X148825476Y-101495236D01*
X148808750Y-101411149D01*
X148806556Y-101388869D01*
X148806556Y-101370450D01*
X148805954Y-101358198D01*
X148804148Y-101339861D01*
X148804148Y-100802140D01*
X148805737Y-100786001D01*
X148810147Y-100771466D01*
X148815607Y-100758283D01*
X148820387Y-100734249D01*
X148820387Y-100709745D01*
X148815606Y-100685712D01*
X148806228Y-100663073D01*
X148805000Y-100661235D01*
X148805000Y-99429947D01*
X148811474Y-99417835D01*
X148818587Y-99394386D01*
X148820989Y-99370000D01*
X148818587Y-99345614D01*
X148812083Y-99327436D01*
X148812227Y-99327392D01*
X148805737Y-99305999D01*
X148804148Y-99289860D01*
X148804148Y-98752140D01*
X148805954Y-98733802D01*
X148806556Y-98721550D01*
X148806556Y-98703131D01*
X148808750Y-98680851D01*
X148825476Y-98596764D01*
X148831974Y-98575345D01*
X148864785Y-98496129D01*
X148875335Y-98476393D01*
X148922969Y-98405103D01*
X148937176Y-98387792D01*
X148997792Y-98327176D01*
X149015103Y-98312969D01*
X149086393Y-98265335D01*
X149106129Y-98254785D01*
X149185345Y-98221974D01*
X149206764Y-98215476D01*
X149290851Y-98198750D01*
X149313131Y-98196556D01*
X149331550Y-98196556D01*
X149343802Y-98195954D01*
X149362140Y-98194148D01*
X149849860Y-98194148D01*
X149868198Y-98195954D01*
X149868198Y-98195954D01*
G37*
G36*
X147328198Y-98195954D02*
X147340450Y-98196556D01*
X147358869Y-98196556D01*
X147381149Y-98198750D01*
X147465236Y-98215476D01*
X147486655Y-98221974D01*
X147565871Y-98254785D01*
X147585607Y-98265335D01*
X147656897Y-98312969D01*
X147674208Y-98327176D01*
X147734824Y-98387792D01*
X147749031Y-98405103D01*
X147796665Y-98476393D01*
X147807215Y-98496129D01*
X147840026Y-98575345D01*
X147846524Y-98596764D01*
X147863250Y-98680851D01*
X147865444Y-98703131D01*
X147865444Y-98721550D01*
X147866046Y-98733802D01*
X147867852Y-98752140D01*
X147867852Y-99289860D01*
X147866263Y-99305999D01*
X147861853Y-99320534D01*
X147856393Y-99333717D01*
X147851613Y-99357751D01*
X147851613Y-99382255D01*
X147856394Y-99406288D01*
X147865772Y-99428927D01*
X147867000Y-99430765D01*
X147867000Y-100662053D01*
X147860526Y-100674165D01*
X147853413Y-100697614D01*
X147851011Y-100722000D01*
X147853413Y-100746386D01*
X147859917Y-100764564D01*
X147859773Y-100764608D01*
X147866263Y-100786001D01*
X147867852Y-100802140D01*
X147867852Y-101339861D01*
X147866046Y-101358198D01*
X147865444Y-101370450D01*
X147865444Y-101388869D01*
X147863250Y-101411149D01*
X147846524Y-101495236D01*
X147840026Y-101516655D01*
X147807215Y-101595871D01*
X147796665Y-101615607D01*
X147749031Y-101686897D01*
X147734824Y-101704208D01*
X147674208Y-101764824D01*
X147656897Y-101779031D01*
X147585607Y-101826665D01*
X147565871Y-101837215D01*
X147486655Y-101870026D01*
X147465236Y-101876524D01*
X147381149Y-101893250D01*
X147358869Y-101895444D01*
X147340450Y-101895444D01*
X147328198Y-101896046D01*
X147309861Y-101897852D01*
X146822139Y-101897852D01*
X146803802Y-101896046D01*
X146791550Y-101895444D01*
X146773131Y-101895444D01*
X146750851Y-101893250D01*
X146666764Y-101876524D01*
X146645345Y-101870026D01*
X146566129Y-101837215D01*
X146546393Y-101826665D01*
X146475103Y-101779031D01*
X146457792Y-101764824D01*
X146397176Y-101704208D01*
X146382969Y-101686897D01*
X146335335Y-101615607D01*
X146324785Y-101595871D01*
X146291974Y-101516655D01*
X146285476Y-101495236D01*
X146268750Y-101411149D01*
X146266556Y-101388869D01*
X146266556Y-101370450D01*
X146265954Y-101358198D01*
X146264148Y-101339861D01*
X146264148Y-100802140D01*
X146265737Y-100786001D01*
X146270147Y-100771466D01*
X146275607Y-100758283D01*
X146280387Y-100734249D01*
X146280387Y-100709745D01*
X146275606Y-100685712D01*
X146266228Y-100663073D01*
X146265000Y-100661235D01*
X146265000Y-99429947D01*
X146271474Y-99417835D01*
X146278587Y-99394386D01*
X146280989Y-99370000D01*
X146278587Y-99345614D01*
X146272083Y-99327436D01*
X146272227Y-99327392D01*
X146265737Y-99305999D01*
X146264148Y-99289860D01*
X146264148Y-98752140D01*
X146265954Y-98733802D01*
X146266556Y-98721550D01*
X146266556Y-98703131D01*
X146268750Y-98680851D01*
X146285476Y-98596764D01*
X146291974Y-98575345D01*
X146324785Y-98496129D01*
X146335335Y-98476393D01*
X146382969Y-98405103D01*
X146397176Y-98387792D01*
X146457792Y-98327176D01*
X146475103Y-98312969D01*
X146546393Y-98265335D01*
X146566129Y-98254785D01*
X146645345Y-98221974D01*
X146666764Y-98215476D01*
X146750851Y-98198750D01*
X146773131Y-98196556D01*
X146791550Y-98196556D01*
X146803802Y-98195954D01*
X146822140Y-98194148D01*
X147309860Y-98194148D01*
X147328198Y-98195954D01*
X147328198Y-98195954D01*
G37*
M02*
