G04 #@! TF.GenerationSoftware,KiCad,Pcbnew,5.0.2+dfsg1-1*
G04 #@! TF.CreationDate,2021-08-23T09:22:29-10:00*
G04 #@! TF.ProjectId,watchy-scd40,77617463-6879-42d7-9363-6434302e6b69,rev?*
G04 #@! TF.SameCoordinates,Original*
G04 #@! TF.FileFunction,Soldermask,Top*
G04 #@! TF.FilePolarity,Negative*
%FSLAX46Y46*%
G04 Gerber Fmt 4.6, Leading zero omitted, Abs format (unit mm)*
G04 Created by KiCad (PCBNEW 5.0.2+dfsg1-1) date Mon 23 Aug 2021 09:22:29 AM HST*
%MOMM*%
%LPD*%
G01*
G04 APERTURE LIST*
%ADD10C,0.100000*%
G04 APERTURE END LIST*
D10*
G04 #@! TO.C,U1*
G36*
X146350000Y-90100000D02*
X146650000Y-90400000D01*
X146650000Y-91100000D01*
X144950000Y-91100000D01*
X144950000Y-90100000D01*
X146350000Y-90100000D01*
G37*
G36*
X148124000Y-104682000D02*
X147024000Y-104682000D01*
X147024000Y-102582000D01*
X148124000Y-102582000D01*
X148124000Y-104682000D01*
X148124000Y-104682000D01*
G37*
G36*
X150410000Y-104682000D02*
X149310000Y-104682000D01*
X149310000Y-102582000D01*
X150410000Y-102582000D01*
X150410000Y-104682000D01*
X150410000Y-104682000D01*
G37*
G36*
X154728000Y-104682000D02*
X153628000Y-104682000D01*
X153628000Y-102582000D01*
X154728000Y-102582000D01*
X154728000Y-104682000D01*
X154728000Y-104682000D01*
G37*
G36*
X146092000Y-104682000D02*
X144992000Y-104682000D01*
X144992000Y-102582000D01*
X146092000Y-102582000D01*
X146092000Y-104682000D01*
X146092000Y-104682000D01*
G37*
G36*
X152696000Y-104682000D02*
X151596000Y-104682000D01*
X151596000Y-102582000D01*
X152696000Y-102582000D01*
X152696000Y-104682000D01*
X152696000Y-104682000D01*
G37*
G36*
X146229676Y-100600610D02*
X146269960Y-100612829D01*
X146307080Y-100632670D01*
X146339622Y-100659378D01*
X146366330Y-100691920D01*
X146386171Y-100729040D01*
X146398390Y-100769324D01*
X146403000Y-100816124D01*
X146403000Y-101875876D01*
X146398390Y-101922676D01*
X146386171Y-101962960D01*
X146366330Y-102000080D01*
X146339622Y-102032622D01*
X146307080Y-102059330D01*
X146269960Y-102079171D01*
X146229676Y-102091390D01*
X146182876Y-102096000D01*
X145373124Y-102096000D01*
X145326324Y-102091390D01*
X145286040Y-102079171D01*
X145248920Y-102059330D01*
X145216378Y-102032622D01*
X145189670Y-102000080D01*
X145169829Y-101962960D01*
X145157610Y-101922676D01*
X145153000Y-101875876D01*
X145153000Y-100816124D01*
X145157610Y-100769324D01*
X145169829Y-100729040D01*
X145189670Y-100691920D01*
X145216378Y-100659378D01*
X145248920Y-100632670D01*
X145286040Y-100612829D01*
X145326324Y-100600610D01*
X145373124Y-100596000D01*
X146182876Y-100596000D01*
X146229676Y-100600610D01*
X146229676Y-100600610D01*
G37*
G36*
X148279676Y-100600610D02*
X148319960Y-100612829D01*
X148357080Y-100632670D01*
X148389622Y-100659378D01*
X148416330Y-100691920D01*
X148436171Y-100729040D01*
X148448390Y-100769324D01*
X148453000Y-100816124D01*
X148453000Y-101875876D01*
X148448390Y-101922676D01*
X148436171Y-101962960D01*
X148416330Y-102000080D01*
X148389622Y-102032622D01*
X148357080Y-102059330D01*
X148319960Y-102079171D01*
X148279676Y-102091390D01*
X148232876Y-102096000D01*
X147423124Y-102096000D01*
X147376324Y-102091390D01*
X147336040Y-102079171D01*
X147298920Y-102059330D01*
X147266378Y-102032622D01*
X147239670Y-102000080D01*
X147219829Y-101962960D01*
X147207610Y-101922676D01*
X147203000Y-101875876D01*
X147203000Y-100816124D01*
X147207610Y-100769324D01*
X147219829Y-100729040D01*
X147239670Y-100691920D01*
X147266378Y-100659378D01*
X147298920Y-100632670D01*
X147336040Y-100612829D01*
X147376324Y-100600610D01*
X147423124Y-100596000D01*
X148232876Y-100596000D01*
X148279676Y-100600610D01*
X148279676Y-100600610D01*
G37*
G36*
X154500676Y-100725610D02*
X154540960Y-100737829D01*
X154578080Y-100757670D01*
X154610622Y-100784378D01*
X154637330Y-100816920D01*
X154657171Y-100854040D01*
X154669390Y-100894324D01*
X154674000Y-100941124D01*
X154674000Y-101750876D01*
X154669390Y-101797676D01*
X154657171Y-101837960D01*
X154637330Y-101875080D01*
X154610622Y-101907622D01*
X154578080Y-101934330D01*
X154540960Y-101954171D01*
X154500676Y-101966390D01*
X154453876Y-101971000D01*
X153394124Y-101971000D01*
X153347324Y-101966390D01*
X153307040Y-101954171D01*
X153269920Y-101934330D01*
X153237378Y-101907622D01*
X153210670Y-101875080D01*
X153190829Y-101837960D01*
X153178610Y-101797676D01*
X153174000Y-101750876D01*
X153174000Y-100941124D01*
X153178610Y-100894324D01*
X153190829Y-100854040D01*
X153210670Y-100816920D01*
X153237378Y-100784378D01*
X153269920Y-100757670D01*
X153307040Y-100737829D01*
X153347324Y-100725610D01*
X153394124Y-100721000D01*
X154453876Y-100721000D01*
X154500676Y-100725610D01*
X154500676Y-100725610D01*
G37*
G36*
X152201000Y-101756000D02*
X149551000Y-101756000D01*
X149551000Y-100596000D01*
X152201000Y-100596000D01*
X152201000Y-101756000D01*
X152201000Y-101756000D01*
G37*
G36*
X148279676Y-98568610D02*
X148319960Y-98580829D01*
X148357080Y-98600670D01*
X148389622Y-98627378D01*
X148416330Y-98659920D01*
X148436171Y-98697040D01*
X148448390Y-98737324D01*
X148453000Y-98784124D01*
X148453000Y-99843876D01*
X148448390Y-99890676D01*
X148436171Y-99930960D01*
X148416330Y-99968080D01*
X148389622Y-100000622D01*
X148357080Y-100027330D01*
X148319960Y-100047171D01*
X148279676Y-100059390D01*
X148232876Y-100064000D01*
X147423124Y-100064000D01*
X147376324Y-100059390D01*
X147336040Y-100047171D01*
X147298920Y-100027330D01*
X147266378Y-100000622D01*
X147239670Y-99968080D01*
X147219829Y-99930960D01*
X147207610Y-99890676D01*
X147203000Y-99843876D01*
X147203000Y-98784124D01*
X147207610Y-98737324D01*
X147219829Y-98697040D01*
X147239670Y-98659920D01*
X147266378Y-98627378D01*
X147298920Y-98600670D01*
X147336040Y-98580829D01*
X147376324Y-98568610D01*
X147423124Y-98564000D01*
X148232876Y-98564000D01*
X148279676Y-98568610D01*
X148279676Y-98568610D01*
G37*
G36*
X146229676Y-98568610D02*
X146269960Y-98580829D01*
X146307080Y-98600670D01*
X146339622Y-98627378D01*
X146366330Y-98659920D01*
X146386171Y-98697040D01*
X146398390Y-98737324D01*
X146403000Y-98784124D01*
X146403000Y-99843876D01*
X146398390Y-99890676D01*
X146386171Y-99930960D01*
X146366330Y-99968080D01*
X146339622Y-100000622D01*
X146307080Y-100027330D01*
X146269960Y-100047171D01*
X146229676Y-100059390D01*
X146182876Y-100064000D01*
X145373124Y-100064000D01*
X145326324Y-100059390D01*
X145286040Y-100047171D01*
X145248920Y-100027330D01*
X145216378Y-100000622D01*
X145189670Y-99968080D01*
X145169829Y-99930960D01*
X145157610Y-99890676D01*
X145153000Y-99843876D01*
X145153000Y-98784124D01*
X145157610Y-98737324D01*
X145169829Y-98697040D01*
X145189670Y-98659920D01*
X145216378Y-98627378D01*
X145248920Y-98600670D01*
X145286040Y-98580829D01*
X145326324Y-98568610D01*
X145373124Y-98564000D01*
X146182876Y-98564000D01*
X146229676Y-98568610D01*
X146229676Y-98568610D01*
G37*
G36*
X154500676Y-98675610D02*
X154540960Y-98687829D01*
X154578080Y-98707670D01*
X154610622Y-98734378D01*
X154637330Y-98766920D01*
X154657171Y-98804040D01*
X154669390Y-98844324D01*
X154674000Y-98891124D01*
X154674000Y-99700876D01*
X154669390Y-99747676D01*
X154657171Y-99787960D01*
X154637330Y-99825080D01*
X154610622Y-99857622D01*
X154578080Y-99884330D01*
X154540960Y-99904171D01*
X154500676Y-99916390D01*
X154453876Y-99921000D01*
X153394124Y-99921000D01*
X153347324Y-99916390D01*
X153307040Y-99904171D01*
X153269920Y-99884330D01*
X153237378Y-99857622D01*
X153210670Y-99825080D01*
X153190829Y-99787960D01*
X153178610Y-99747676D01*
X153174000Y-99700876D01*
X153174000Y-98891124D01*
X153178610Y-98844324D01*
X153190829Y-98804040D01*
X153210670Y-98766920D01*
X153237378Y-98734378D01*
X153269920Y-98707670D01*
X153307040Y-98687829D01*
X153347324Y-98675610D01*
X153394124Y-98671000D01*
X154453876Y-98671000D01*
X154500676Y-98675610D01*
X154500676Y-98675610D01*
G37*
G36*
X150301000Y-99556000D02*
X149551000Y-99556000D01*
X149551000Y-98396000D01*
X150301000Y-98396000D01*
X150301000Y-99556000D01*
X150301000Y-99556000D01*
G37*
G36*
X152201000Y-99556000D02*
X151451000Y-99556000D01*
X151451000Y-98396000D01*
X152201000Y-98396000D01*
X152201000Y-99556000D01*
X152201000Y-99556000D01*
G37*
G36*
X150301600Y-97951600D02*
X149298400Y-97951600D01*
X149298400Y-96248400D01*
X150301600Y-96248400D01*
X150301600Y-97951600D01*
X150301600Y-97951600D01*
G37*
G36*
X147801600Y-97951600D02*
X146798400Y-97951600D01*
X146798400Y-96248400D01*
X147801600Y-96248400D01*
X147801600Y-97951600D01*
X147801600Y-97951600D01*
G37*
G36*
X152801600Y-97951600D02*
X151798400Y-97951600D01*
X151798400Y-96248400D01*
X152801600Y-96248400D01*
X152801600Y-97951600D01*
X152801600Y-97951600D01*
G37*
G36*
X149051600Y-97951600D02*
X148048400Y-97951600D01*
X148048400Y-96248400D01*
X149051600Y-96248400D01*
X149051600Y-97951600D01*
X149051600Y-97951600D01*
G37*
G36*
X151551600Y-97951600D02*
X150548400Y-97951600D01*
X150548400Y-96248400D01*
X151551600Y-96248400D01*
X151551600Y-97951600D01*
X151551600Y-97951600D01*
G37*
G36*
X154651600Y-96101600D02*
X152948400Y-96101600D01*
X152948400Y-95098400D01*
X154651600Y-95098400D01*
X154651600Y-96101600D01*
X154651600Y-96101600D01*
G37*
G36*
X146651600Y-96101600D02*
X144948400Y-96101600D01*
X144948400Y-95098400D01*
X146651600Y-95098400D01*
X146651600Y-96101600D01*
X146651600Y-96101600D01*
G37*
G36*
X152277296Y-90599453D02*
X152282845Y-90601136D01*
X152287962Y-90603871D01*
X152292448Y-90607552D01*
X152296129Y-90612038D01*
X152298864Y-90617155D01*
X152300547Y-90622704D01*
X152301600Y-90633396D01*
X152301600Y-95566604D01*
X152300547Y-95577296D01*
X152298864Y-95582845D01*
X152296129Y-95587962D01*
X152292448Y-95592448D01*
X152287962Y-95596129D01*
X152282845Y-95598864D01*
X152277296Y-95600547D01*
X152266604Y-95601600D01*
X147333396Y-95601600D01*
X147322704Y-95600547D01*
X147317155Y-95598864D01*
X147312038Y-95596129D01*
X147307552Y-95592448D01*
X147303871Y-95587962D01*
X147301136Y-95582845D01*
X147299453Y-95577296D01*
X147298400Y-95566604D01*
X147298400Y-90633396D01*
X147299453Y-90622704D01*
X147301136Y-90617155D01*
X147303871Y-90612038D01*
X147307552Y-90607552D01*
X147312038Y-90603871D01*
X147317155Y-90601136D01*
X147322704Y-90599453D01*
X147333396Y-90598400D01*
X152266604Y-90598400D01*
X152277296Y-90599453D01*
X152277296Y-90599453D01*
G37*
G36*
X146651600Y-94851600D02*
X144948400Y-94851600D01*
X144948400Y-93848400D01*
X146651600Y-93848400D01*
X146651600Y-94851600D01*
X146651600Y-94851600D01*
G37*
G36*
X154651600Y-94851600D02*
X152948400Y-94851600D01*
X152948400Y-93848400D01*
X154651600Y-93848400D01*
X154651600Y-94851600D01*
X154651600Y-94851600D01*
G37*
G36*
X146651600Y-93601600D02*
X144948400Y-93601600D01*
X144948400Y-92598400D01*
X146651600Y-92598400D01*
X146651600Y-93601600D01*
X146651600Y-93601600D01*
G37*
G36*
X154651600Y-93601600D02*
X152948400Y-93601600D01*
X152948400Y-92598400D01*
X154651600Y-92598400D01*
X154651600Y-93601600D01*
X154651600Y-93601600D01*
G37*
G36*
X154651600Y-92351600D02*
X152948400Y-92351600D01*
X152948400Y-91348400D01*
X154651600Y-91348400D01*
X154651600Y-92351600D01*
X154651600Y-92351600D01*
G37*
G36*
X146651600Y-92351600D02*
X144948400Y-92351600D01*
X144948400Y-91348400D01*
X146651600Y-91348400D01*
X146651600Y-92351600D01*
X146651600Y-92351600D01*
G37*
G36*
X154651600Y-91101600D02*
X152948400Y-91101600D01*
X152948400Y-90098400D01*
X154651600Y-90098400D01*
X154651600Y-91101600D01*
X154651600Y-91101600D01*
G37*
G36*
X146301600Y-91101600D02*
X145298400Y-91101600D01*
X145298400Y-90098400D01*
X146301600Y-90098400D01*
X146301600Y-91101600D01*
X146301600Y-91101600D01*
G37*
G36*
X149051600Y-89951600D02*
X148048400Y-89951600D01*
X148048400Y-88248400D01*
X149051600Y-88248400D01*
X149051600Y-89951600D01*
X149051600Y-89951600D01*
G37*
G36*
X147801600Y-89951600D02*
X146798400Y-89951600D01*
X146798400Y-88248400D01*
X147801600Y-88248400D01*
X147801600Y-89951600D01*
X147801600Y-89951600D01*
G37*
G36*
X150301600Y-89951600D02*
X149298400Y-89951600D01*
X149298400Y-88248400D01*
X150301600Y-88248400D01*
X150301600Y-89951600D01*
X150301600Y-89951600D01*
G37*
G36*
X151551600Y-89951600D02*
X150548400Y-89951600D01*
X150548400Y-88248400D01*
X151551600Y-88248400D01*
X151551600Y-89951600D01*
X151551600Y-89951600D01*
G37*
G36*
X152801600Y-89951600D02*
X151798400Y-89951600D01*
X151798400Y-88248400D01*
X152801600Y-88248400D01*
X152801600Y-89951600D01*
X152801600Y-89951600D01*
G37*
M02*
