G04 #@! TF.GenerationSoftware,KiCad,Pcbnew,5.0.2+dfsg1-1*
G04 #@! TF.CreationDate,2021-08-20T18:41:43-10:00*
G04 #@! TF.ProjectId,watchy-scd40,77617463-6879-42d7-9363-6434302e6b69,rev?*
G04 #@! TF.SameCoordinates,Original*
G04 #@! TF.FileFunction,Legend,Top*
G04 #@! TF.FilePolarity,Positive*
%FSLAX46Y46*%
G04 Gerber Fmt 4.6, Leading zero omitted, Abs format (unit mm)*
G04 Created by KiCad (PCBNEW 5.0.2+dfsg1-1) date Fri 20 Aug 2021 06:41:43 PM HST*
%MOMM*%
%LPD*%
G01*
G04 APERTURE LIST*
%ADD10C,0.127000*%
%ADD11C,0.120000*%
G04 APERTURE END LIST*
D10*
G04 #@! TO.C,U1*
X152300000Y-90600000D02*
X152300000Y-95600000D01*
X147300000Y-95600000D02*
X147300000Y-91400000D01*
X152300000Y-95600000D02*
X147300000Y-95600000D01*
X147300000Y-91400000D02*
X148100000Y-90600000D01*
X152300000Y-90600000D02*
X148100000Y-90600000D01*
X145725000Y-88725000D02*
G75*
G03X145725000Y-88725000I-300000J0D01*
G01*
X144700000Y-98200000D02*
X146300000Y-98200000D01*
X144700000Y-98200000D02*
X144700000Y-96600000D01*
X154900000Y-98200000D02*
X154900000Y-96600000D01*
X154900000Y-98200000D02*
X153300000Y-98200000D01*
X154900000Y-88000000D02*
X153300000Y-88000000D01*
X154900000Y-88000000D02*
X154900000Y-89600000D01*
X144700000Y-88000000D02*
X144700000Y-89600000D01*
X144700000Y-88000000D02*
X146300000Y-88000000D01*
D11*
G04 #@! TO.C,C3*
X147064252Y-98604000D02*
X146541748Y-98604000D01*
X147064252Y-100024000D02*
X146541748Y-100024000D01*
G04 #@! TO.C,C2*
X153214000Y-100059748D02*
X153214000Y-100582252D01*
X154634000Y-100059748D02*
X154634000Y-100582252D01*
G04 #@! TO.C,C1*
X147064252Y-100636000D02*
X146541748Y-100636000D01*
X147064252Y-102056000D02*
X146541748Y-102056000D01*
G04 #@! TO.C,U2*
X149266000Y-99176000D02*
X149266000Y-101626000D01*
X152486000Y-100976000D02*
X152486000Y-99176000D01*
G04 #@! TO.C,TP5*
X144342000Y-104832000D02*
X144342000Y-102432000D01*
X146742000Y-104832000D02*
X144342000Y-104832000D01*
X146742000Y-102432000D02*
X146742000Y-104832000D01*
X144342000Y-102432000D02*
X146742000Y-102432000D01*
G04 #@! TO.C,TP4*
X152978000Y-104832000D02*
X152978000Y-102432000D01*
X155378000Y-104832000D02*
X152978000Y-104832000D01*
X155378000Y-102432000D02*
X155378000Y-104832000D01*
X152978000Y-102432000D02*
X155378000Y-102432000D01*
G04 #@! TO.C,TP3*
X150946000Y-104832000D02*
X150946000Y-102432000D01*
X153346000Y-104832000D02*
X150946000Y-104832000D01*
X153346000Y-102432000D02*
X153346000Y-104832000D01*
X150946000Y-102432000D02*
X153346000Y-102432000D01*
G04 #@! TO.C,TP2*
X148660000Y-104832000D02*
X148660000Y-102432000D01*
X151060000Y-104832000D02*
X148660000Y-104832000D01*
X151060000Y-102432000D02*
X151060000Y-104832000D01*
X148660000Y-102432000D02*
X151060000Y-102432000D01*
G04 #@! TO.C,TP1*
X146374000Y-104832000D02*
X146374000Y-102432000D01*
X148774000Y-104832000D02*
X146374000Y-104832000D01*
X148774000Y-102432000D02*
X148774000Y-104832000D01*
X146374000Y-102432000D02*
X148774000Y-102432000D01*
G04 #@! TD*
M02*
