G04 #@! TF.GenerationSoftware,KiCad,Pcbnew,5.0.2+dfsg1-1*
G04 #@! TF.CreationDate,2021-08-20T18:41:43-10:00*
G04 #@! TF.ProjectId,watchy-scd40,77617463-6879-42d7-9363-6434302e6b69,rev?*
G04 #@! TF.SameCoordinates,Original*
G04 #@! TF.FileFunction,Soldermask,Top*
G04 #@! TF.FilePolarity,Negative*
%FSLAX46Y46*%
G04 Gerber Fmt 4.6, Leading zero omitted, Abs format (unit mm)*
G04 Created by KiCad (PCBNEW 5.0.2+dfsg1-1) date Fri 20 Aug 2021 06:41:43 PM HST*
%MOMM*%
%LPD*%
G01*
G04 APERTURE LIST*
%ADD10C,0.100000*%
G04 APERTURE END LIST*
D10*
G04 #@! TO.C,U1*
G36*
X146350000Y-90100000D02*
X146650000Y-90400000D01*
X146650000Y-91100000D01*
X144950000Y-91100000D01*
X144950000Y-90100000D01*
X146350000Y-90100000D01*
G37*
G36*
X148125000Y-104683000D02*
X147023000Y-104683000D01*
X147023000Y-102581000D01*
X148125000Y-102581000D01*
X148125000Y-104683000D01*
X148125000Y-104683000D01*
G37*
G36*
X150411000Y-104683000D02*
X149309000Y-104683000D01*
X149309000Y-102581000D01*
X150411000Y-102581000D01*
X150411000Y-104683000D01*
X150411000Y-104683000D01*
G37*
G36*
X154729000Y-104683000D02*
X153627000Y-104683000D01*
X153627000Y-102581000D01*
X154729000Y-102581000D01*
X154729000Y-104683000D01*
X154729000Y-104683000D01*
G37*
G36*
X146093000Y-104683000D02*
X144991000Y-104683000D01*
X144991000Y-102581000D01*
X146093000Y-102581000D01*
X146093000Y-104683000D01*
X146093000Y-104683000D01*
G37*
G36*
X152697000Y-104683000D02*
X151595000Y-104683000D01*
X151595000Y-102581000D01*
X152697000Y-102581000D01*
X152697000Y-104683000D01*
X152697000Y-104683000D01*
G37*
G36*
X146241677Y-100599465D02*
X146279364Y-100610898D01*
X146314103Y-100629466D01*
X146344548Y-100654452D01*
X146369534Y-100684897D01*
X146388102Y-100719636D01*
X146399535Y-100757323D01*
X146404000Y-100802661D01*
X146404000Y-101889339D01*
X146399535Y-101934677D01*
X146388102Y-101972364D01*
X146369534Y-102007103D01*
X146344548Y-102037548D01*
X146314103Y-102062534D01*
X146279364Y-102081102D01*
X146241677Y-102092535D01*
X146196339Y-102097000D01*
X145359661Y-102097000D01*
X145314323Y-102092535D01*
X145276636Y-102081102D01*
X145241897Y-102062534D01*
X145211452Y-102037548D01*
X145186466Y-102007103D01*
X145167898Y-101972364D01*
X145156465Y-101934677D01*
X145152000Y-101889339D01*
X145152000Y-100802661D01*
X145156465Y-100757323D01*
X145167898Y-100719636D01*
X145186466Y-100684897D01*
X145211452Y-100654452D01*
X145241897Y-100629466D01*
X145276636Y-100610898D01*
X145314323Y-100599465D01*
X145359661Y-100595000D01*
X146196339Y-100595000D01*
X146241677Y-100599465D01*
X146241677Y-100599465D01*
G37*
G36*
X148291677Y-100599465D02*
X148329364Y-100610898D01*
X148364103Y-100629466D01*
X148394548Y-100654452D01*
X148419534Y-100684897D01*
X148438102Y-100719636D01*
X148449535Y-100757323D01*
X148454000Y-100802661D01*
X148454000Y-101889339D01*
X148449535Y-101934677D01*
X148438102Y-101972364D01*
X148419534Y-102007103D01*
X148394548Y-102037548D01*
X148364103Y-102062534D01*
X148329364Y-102081102D01*
X148291677Y-102092535D01*
X148246339Y-102097000D01*
X147409661Y-102097000D01*
X147364323Y-102092535D01*
X147326636Y-102081102D01*
X147291897Y-102062534D01*
X147261452Y-102037548D01*
X147236466Y-102007103D01*
X147217898Y-101972364D01*
X147206465Y-101934677D01*
X147202000Y-101889339D01*
X147202000Y-100802661D01*
X147206465Y-100757323D01*
X147217898Y-100719636D01*
X147236466Y-100684897D01*
X147261452Y-100654452D01*
X147291897Y-100629466D01*
X147326636Y-100610898D01*
X147364323Y-100599465D01*
X147409661Y-100595000D01*
X148246339Y-100595000D01*
X148291677Y-100599465D01*
X148291677Y-100599465D01*
G37*
G36*
X154512677Y-100724465D02*
X154550364Y-100735898D01*
X154585103Y-100754466D01*
X154615548Y-100779452D01*
X154640534Y-100809897D01*
X154659102Y-100844636D01*
X154670535Y-100882323D01*
X154675000Y-100927661D01*
X154675000Y-101764339D01*
X154670535Y-101809677D01*
X154659102Y-101847364D01*
X154640534Y-101882103D01*
X154615548Y-101912548D01*
X154585103Y-101937534D01*
X154550364Y-101956102D01*
X154512677Y-101967535D01*
X154467339Y-101972000D01*
X153380661Y-101972000D01*
X153335323Y-101967535D01*
X153297636Y-101956102D01*
X153262897Y-101937534D01*
X153232452Y-101912548D01*
X153207466Y-101882103D01*
X153188898Y-101847364D01*
X153177465Y-101809677D01*
X153173000Y-101764339D01*
X153173000Y-100927661D01*
X153177465Y-100882323D01*
X153188898Y-100844636D01*
X153207466Y-100809897D01*
X153232452Y-100779452D01*
X153262897Y-100754466D01*
X153297636Y-100735898D01*
X153335323Y-100724465D01*
X153380661Y-100720000D01*
X154467339Y-100720000D01*
X154512677Y-100724465D01*
X154512677Y-100724465D01*
G37*
G36*
X152202000Y-101757000D02*
X149550000Y-101757000D01*
X149550000Y-100595000D01*
X152202000Y-100595000D01*
X152202000Y-101757000D01*
X152202000Y-101757000D01*
G37*
G36*
X146241677Y-98567465D02*
X146279364Y-98578898D01*
X146314103Y-98597466D01*
X146344548Y-98622452D01*
X146369534Y-98652897D01*
X146388102Y-98687636D01*
X146399535Y-98725323D01*
X146404000Y-98770661D01*
X146404000Y-99857339D01*
X146399535Y-99902677D01*
X146388102Y-99940364D01*
X146369534Y-99975103D01*
X146344548Y-100005548D01*
X146314103Y-100030534D01*
X146279364Y-100049102D01*
X146241677Y-100060535D01*
X146196339Y-100065000D01*
X145359661Y-100065000D01*
X145314323Y-100060535D01*
X145276636Y-100049102D01*
X145241897Y-100030534D01*
X145211452Y-100005548D01*
X145186466Y-99975103D01*
X145167898Y-99940364D01*
X145156465Y-99902677D01*
X145152000Y-99857339D01*
X145152000Y-98770661D01*
X145156465Y-98725323D01*
X145167898Y-98687636D01*
X145186466Y-98652897D01*
X145211452Y-98622452D01*
X145241897Y-98597466D01*
X145276636Y-98578898D01*
X145314323Y-98567465D01*
X145359661Y-98563000D01*
X146196339Y-98563000D01*
X146241677Y-98567465D01*
X146241677Y-98567465D01*
G37*
G36*
X148291677Y-98567465D02*
X148329364Y-98578898D01*
X148364103Y-98597466D01*
X148394548Y-98622452D01*
X148419534Y-98652897D01*
X148438102Y-98687636D01*
X148449535Y-98725323D01*
X148454000Y-98770661D01*
X148454000Y-99857339D01*
X148449535Y-99902677D01*
X148438102Y-99940364D01*
X148419534Y-99975103D01*
X148394548Y-100005548D01*
X148364103Y-100030534D01*
X148329364Y-100049102D01*
X148291677Y-100060535D01*
X148246339Y-100065000D01*
X147409661Y-100065000D01*
X147364323Y-100060535D01*
X147326636Y-100049102D01*
X147291897Y-100030534D01*
X147261452Y-100005548D01*
X147236466Y-99975103D01*
X147217898Y-99940364D01*
X147206465Y-99902677D01*
X147202000Y-99857339D01*
X147202000Y-98770661D01*
X147206465Y-98725323D01*
X147217898Y-98687636D01*
X147236466Y-98652897D01*
X147261452Y-98622452D01*
X147291897Y-98597466D01*
X147326636Y-98578898D01*
X147364323Y-98567465D01*
X147409661Y-98563000D01*
X148246339Y-98563000D01*
X148291677Y-98567465D01*
X148291677Y-98567465D01*
G37*
G36*
X154512677Y-98674465D02*
X154550364Y-98685898D01*
X154585103Y-98704466D01*
X154615548Y-98729452D01*
X154640534Y-98759897D01*
X154659102Y-98794636D01*
X154670535Y-98832323D01*
X154675000Y-98877661D01*
X154675000Y-99714339D01*
X154670535Y-99759677D01*
X154659102Y-99797364D01*
X154640534Y-99832103D01*
X154615548Y-99862548D01*
X154585103Y-99887534D01*
X154550364Y-99906102D01*
X154512677Y-99917535D01*
X154467339Y-99922000D01*
X153380661Y-99922000D01*
X153335323Y-99917535D01*
X153297636Y-99906102D01*
X153262897Y-99887534D01*
X153232452Y-99862548D01*
X153207466Y-99832103D01*
X153188898Y-99797364D01*
X153177465Y-99759677D01*
X153173000Y-99714339D01*
X153173000Y-98877661D01*
X153177465Y-98832323D01*
X153188898Y-98794636D01*
X153207466Y-98759897D01*
X153232452Y-98729452D01*
X153262897Y-98704466D01*
X153297636Y-98685898D01*
X153335323Y-98674465D01*
X153380661Y-98670000D01*
X154467339Y-98670000D01*
X154512677Y-98674465D01*
X154512677Y-98674465D01*
G37*
G36*
X152202000Y-99557000D02*
X151450000Y-99557000D01*
X151450000Y-98395000D01*
X152202000Y-98395000D01*
X152202000Y-99557000D01*
X152202000Y-99557000D01*
G37*
G36*
X150302000Y-99557000D02*
X149550000Y-99557000D01*
X149550000Y-98395000D01*
X150302000Y-98395000D01*
X150302000Y-99557000D01*
X150302000Y-99557000D01*
G37*
G36*
X152801600Y-97951600D02*
X146798400Y-97951600D01*
X146798400Y-96248400D01*
X152801600Y-96248400D01*
X152801600Y-97951600D01*
X152801600Y-97951600D01*
G37*
G36*
X154651600Y-96101600D02*
X152948400Y-96101600D01*
X152948400Y-90098400D01*
X154651600Y-90098400D01*
X154651600Y-96101600D01*
X154651600Y-96101600D01*
G37*
G36*
X146301600Y-91223400D02*
X146304002Y-91247786D01*
X146311115Y-91271235D01*
X146322666Y-91292846D01*
X146338212Y-91311788D01*
X146357154Y-91327334D01*
X146378765Y-91338885D01*
X146402214Y-91345998D01*
X146426600Y-91348400D01*
X146651600Y-91348400D01*
X146651600Y-96101600D01*
X144948400Y-96101600D01*
X144948400Y-91348400D01*
X145173400Y-91348400D01*
X145197786Y-91345998D01*
X145221235Y-91338885D01*
X145242846Y-91327334D01*
X145261788Y-91311788D01*
X145277334Y-91292846D01*
X145288885Y-91271235D01*
X145295998Y-91247786D01*
X145298400Y-91223400D01*
X145298400Y-90098400D01*
X146301600Y-90098400D01*
X146301600Y-91223400D01*
X146301600Y-91223400D01*
G37*
G36*
X152296384Y-90599114D02*
X152297463Y-90599441D01*
X152298447Y-90599967D01*
X152299318Y-90600682D01*
X152300033Y-90601553D01*
X152300559Y-90602537D01*
X152300886Y-90603616D01*
X152301600Y-90610867D01*
X152301600Y-95589133D01*
X152300886Y-95596384D01*
X152300559Y-95597463D01*
X152300033Y-95598447D01*
X152299318Y-95599318D01*
X152298447Y-95600033D01*
X152297463Y-95600559D01*
X152296384Y-95600886D01*
X152289133Y-95601600D01*
X147310867Y-95601600D01*
X147303616Y-95600886D01*
X147302537Y-95600559D01*
X147301553Y-95600033D01*
X147300682Y-95599318D01*
X147299967Y-95598447D01*
X147299441Y-95597463D01*
X147299114Y-95596384D01*
X147298400Y-95589133D01*
X147298400Y-90610867D01*
X147299114Y-90603616D01*
X147299441Y-90602537D01*
X147299967Y-90601553D01*
X147300682Y-90600682D01*
X147301553Y-90599967D01*
X147302537Y-90599441D01*
X147303616Y-90599114D01*
X147310867Y-90598400D01*
X152289133Y-90598400D01*
X152296384Y-90599114D01*
X152296384Y-90599114D01*
G37*
G36*
X152801600Y-89951600D02*
X146798400Y-89951600D01*
X146798400Y-88248400D01*
X152801600Y-88248400D01*
X152801600Y-89951600D01*
X152801600Y-89951600D01*
G37*
M02*
