G04 #@! TF.GenerationSoftware,KiCad,Pcbnew,5.0.2+dfsg1-1*
G04 #@! TF.CreationDate,2021-08-23T09:22:29-10:00*
G04 #@! TF.ProjectId,watchy-scd40,77617463-6879-42d7-9363-6434302e6b69,rev?*
G04 #@! TF.SameCoordinates,Original*
G04 #@! TF.FileFunction,Paste,Top*
G04 #@! TF.FilePolarity,Positive*
%FSLAX46Y46*%
G04 Gerber Fmt 4.6, Leading zero omitted, Abs format (unit mm)*
G04 Created by KiCad (PCBNEW 5.0.2+dfsg1-1) date Mon 23 Aug 2021 09:22:29 AM HST*
%MOMM*%
%LPD*%
G01*
G04 APERTURE LIST*
%ADD10C,0.100000*%
%ADD11C,4.800000*%
%ADD12R,0.800000X0.800000*%
%ADD13R,1.500000X0.800000*%
%ADD14R,0.800000X1.500000*%
%ADD15C,1.150000*%
%ADD16R,0.650000X1.060000*%
G04 APERTURE END LIST*
D10*
G04 #@! TO.C,U1*
G36*
X145050000Y-90200000D02*
X145050000Y-91000000D01*
X146550000Y-91000000D01*
X146550000Y-90450000D01*
X146300000Y-90200000D01*
X145050000Y-90200000D01*
G37*
G04 #@! TD*
G04 #@! TO.C,U1*
G36*
X152091762Y-90700578D02*
X152103411Y-90702306D01*
X152114834Y-90705167D01*
X152125922Y-90709134D01*
X152136568Y-90714169D01*
X152146668Y-90720224D01*
X152156127Y-90727239D01*
X152164853Y-90735147D01*
X152172761Y-90743873D01*
X152179776Y-90753332D01*
X152185831Y-90763432D01*
X152190866Y-90774078D01*
X152194833Y-90785166D01*
X152197694Y-90796589D01*
X152199422Y-90808238D01*
X152200000Y-90820000D01*
X152200000Y-95380000D01*
X152199422Y-95391762D01*
X152197694Y-95403411D01*
X152194833Y-95414834D01*
X152190866Y-95425922D01*
X152185831Y-95436568D01*
X152179776Y-95446668D01*
X152172761Y-95456127D01*
X152164853Y-95464853D01*
X152156127Y-95472761D01*
X152146668Y-95479776D01*
X152136568Y-95485831D01*
X152125922Y-95490866D01*
X152114834Y-95494833D01*
X152103411Y-95497694D01*
X152091762Y-95499422D01*
X152080000Y-95500000D01*
X147520000Y-95500000D01*
X147508238Y-95499422D01*
X147496589Y-95497694D01*
X147485166Y-95494833D01*
X147474078Y-95490866D01*
X147463432Y-95485831D01*
X147453332Y-95479776D01*
X147443873Y-95472761D01*
X147435147Y-95464853D01*
X147427239Y-95456127D01*
X147420224Y-95446668D01*
X147414169Y-95436568D01*
X147409134Y-95425922D01*
X147405167Y-95414834D01*
X147402306Y-95403411D01*
X147400578Y-95391762D01*
X147400000Y-95380000D01*
X147400000Y-90820000D01*
X147400578Y-90808238D01*
X147402306Y-90796589D01*
X147405167Y-90785166D01*
X147409134Y-90774078D01*
X147414169Y-90763432D01*
X147420224Y-90753332D01*
X147427239Y-90743873D01*
X147435147Y-90735147D01*
X147443873Y-90727239D01*
X147453332Y-90720224D01*
X147463432Y-90714169D01*
X147474078Y-90709134D01*
X147485166Y-90705167D01*
X147496589Y-90702306D01*
X147508238Y-90700578D01*
X147520000Y-90700000D01*
X152080000Y-90700000D01*
X152091762Y-90700578D01*
X152091762Y-90700578D01*
G37*
D11*
X149800000Y-93100000D03*
D12*
X145800000Y-90600000D03*
D13*
X145800000Y-91850000D03*
X145800000Y-93100000D03*
X145800000Y-94350000D03*
X145800000Y-95600000D03*
D14*
X147300000Y-97100000D03*
X148550000Y-97100000D03*
X149800000Y-97100000D03*
X151050000Y-97100000D03*
X152300000Y-97100000D03*
D13*
X153800000Y-95600000D03*
X153800000Y-94350000D03*
X153800000Y-93100000D03*
X153800000Y-91850000D03*
X153800000Y-90600000D03*
D14*
X152300000Y-89100000D03*
X151050000Y-89100000D03*
X149800000Y-89100000D03*
X148550000Y-89100000D03*
X147300000Y-89100000D03*
G04 #@! TD*
D10*
G04 #@! TO.C,C3*
G36*
X146127505Y-98615204D02*
X146151773Y-98618804D01*
X146175572Y-98624765D01*
X146198671Y-98633030D01*
X146220850Y-98643520D01*
X146241893Y-98656132D01*
X146261599Y-98670747D01*
X146279777Y-98687223D01*
X146296253Y-98705401D01*
X146310868Y-98725107D01*
X146323480Y-98746150D01*
X146333970Y-98768329D01*
X146342235Y-98791428D01*
X146348196Y-98815227D01*
X146351796Y-98839495D01*
X146353000Y-98863999D01*
X146353000Y-99764001D01*
X146351796Y-99788505D01*
X146348196Y-99812773D01*
X146342235Y-99836572D01*
X146333970Y-99859671D01*
X146323480Y-99881850D01*
X146310868Y-99902893D01*
X146296253Y-99922599D01*
X146279777Y-99940777D01*
X146261599Y-99957253D01*
X146241893Y-99971868D01*
X146220850Y-99984480D01*
X146198671Y-99994970D01*
X146175572Y-100003235D01*
X146151773Y-100009196D01*
X146127505Y-100012796D01*
X146103001Y-100014000D01*
X145452999Y-100014000D01*
X145428495Y-100012796D01*
X145404227Y-100009196D01*
X145380428Y-100003235D01*
X145357329Y-99994970D01*
X145335150Y-99984480D01*
X145314107Y-99971868D01*
X145294401Y-99957253D01*
X145276223Y-99940777D01*
X145259747Y-99922599D01*
X145245132Y-99902893D01*
X145232520Y-99881850D01*
X145222030Y-99859671D01*
X145213765Y-99836572D01*
X145207804Y-99812773D01*
X145204204Y-99788505D01*
X145203000Y-99764001D01*
X145203000Y-98863999D01*
X145204204Y-98839495D01*
X145207804Y-98815227D01*
X145213765Y-98791428D01*
X145222030Y-98768329D01*
X145232520Y-98746150D01*
X145245132Y-98725107D01*
X145259747Y-98705401D01*
X145276223Y-98687223D01*
X145294401Y-98670747D01*
X145314107Y-98656132D01*
X145335150Y-98643520D01*
X145357329Y-98633030D01*
X145380428Y-98624765D01*
X145404227Y-98618804D01*
X145428495Y-98615204D01*
X145452999Y-98614000D01*
X146103001Y-98614000D01*
X146127505Y-98615204D01*
X146127505Y-98615204D01*
G37*
D15*
X145778000Y-99314000D03*
D10*
G36*
X148177505Y-98615204D02*
X148201773Y-98618804D01*
X148225572Y-98624765D01*
X148248671Y-98633030D01*
X148270850Y-98643520D01*
X148291893Y-98656132D01*
X148311599Y-98670747D01*
X148329777Y-98687223D01*
X148346253Y-98705401D01*
X148360868Y-98725107D01*
X148373480Y-98746150D01*
X148383970Y-98768329D01*
X148392235Y-98791428D01*
X148398196Y-98815227D01*
X148401796Y-98839495D01*
X148403000Y-98863999D01*
X148403000Y-99764001D01*
X148401796Y-99788505D01*
X148398196Y-99812773D01*
X148392235Y-99836572D01*
X148383970Y-99859671D01*
X148373480Y-99881850D01*
X148360868Y-99902893D01*
X148346253Y-99922599D01*
X148329777Y-99940777D01*
X148311599Y-99957253D01*
X148291893Y-99971868D01*
X148270850Y-99984480D01*
X148248671Y-99994970D01*
X148225572Y-100003235D01*
X148201773Y-100009196D01*
X148177505Y-100012796D01*
X148153001Y-100014000D01*
X147502999Y-100014000D01*
X147478495Y-100012796D01*
X147454227Y-100009196D01*
X147430428Y-100003235D01*
X147407329Y-99994970D01*
X147385150Y-99984480D01*
X147364107Y-99971868D01*
X147344401Y-99957253D01*
X147326223Y-99940777D01*
X147309747Y-99922599D01*
X147295132Y-99902893D01*
X147282520Y-99881850D01*
X147272030Y-99859671D01*
X147263765Y-99836572D01*
X147257804Y-99812773D01*
X147254204Y-99788505D01*
X147253000Y-99764001D01*
X147253000Y-98863999D01*
X147254204Y-98839495D01*
X147257804Y-98815227D01*
X147263765Y-98791428D01*
X147272030Y-98768329D01*
X147282520Y-98746150D01*
X147295132Y-98725107D01*
X147309747Y-98705401D01*
X147326223Y-98687223D01*
X147344401Y-98670747D01*
X147364107Y-98656132D01*
X147385150Y-98643520D01*
X147407329Y-98633030D01*
X147430428Y-98624765D01*
X147454227Y-98618804D01*
X147478495Y-98615204D01*
X147502999Y-98614000D01*
X148153001Y-98614000D01*
X148177505Y-98615204D01*
X148177505Y-98615204D01*
G37*
D15*
X147828000Y-99314000D03*
G04 #@! TD*
D10*
G04 #@! TO.C,C2*
G36*
X154398505Y-100772204D02*
X154422773Y-100775804D01*
X154446572Y-100781765D01*
X154469671Y-100790030D01*
X154491850Y-100800520D01*
X154512893Y-100813132D01*
X154532599Y-100827747D01*
X154550777Y-100844223D01*
X154567253Y-100862401D01*
X154581868Y-100882107D01*
X154594480Y-100903150D01*
X154604970Y-100925329D01*
X154613235Y-100948428D01*
X154619196Y-100972227D01*
X154622796Y-100996495D01*
X154624000Y-101020999D01*
X154624000Y-101671001D01*
X154622796Y-101695505D01*
X154619196Y-101719773D01*
X154613235Y-101743572D01*
X154604970Y-101766671D01*
X154594480Y-101788850D01*
X154581868Y-101809893D01*
X154567253Y-101829599D01*
X154550777Y-101847777D01*
X154532599Y-101864253D01*
X154512893Y-101878868D01*
X154491850Y-101891480D01*
X154469671Y-101901970D01*
X154446572Y-101910235D01*
X154422773Y-101916196D01*
X154398505Y-101919796D01*
X154374001Y-101921000D01*
X153473999Y-101921000D01*
X153449495Y-101919796D01*
X153425227Y-101916196D01*
X153401428Y-101910235D01*
X153378329Y-101901970D01*
X153356150Y-101891480D01*
X153335107Y-101878868D01*
X153315401Y-101864253D01*
X153297223Y-101847777D01*
X153280747Y-101829599D01*
X153266132Y-101809893D01*
X153253520Y-101788850D01*
X153243030Y-101766671D01*
X153234765Y-101743572D01*
X153228804Y-101719773D01*
X153225204Y-101695505D01*
X153224000Y-101671001D01*
X153224000Y-101020999D01*
X153225204Y-100996495D01*
X153228804Y-100972227D01*
X153234765Y-100948428D01*
X153243030Y-100925329D01*
X153253520Y-100903150D01*
X153266132Y-100882107D01*
X153280747Y-100862401D01*
X153297223Y-100844223D01*
X153315401Y-100827747D01*
X153335107Y-100813132D01*
X153356150Y-100800520D01*
X153378329Y-100790030D01*
X153401428Y-100781765D01*
X153425227Y-100775804D01*
X153449495Y-100772204D01*
X153473999Y-100771000D01*
X154374001Y-100771000D01*
X154398505Y-100772204D01*
X154398505Y-100772204D01*
G37*
D15*
X153924000Y-101346000D03*
D10*
G36*
X154398505Y-98722204D02*
X154422773Y-98725804D01*
X154446572Y-98731765D01*
X154469671Y-98740030D01*
X154491850Y-98750520D01*
X154512893Y-98763132D01*
X154532599Y-98777747D01*
X154550777Y-98794223D01*
X154567253Y-98812401D01*
X154581868Y-98832107D01*
X154594480Y-98853150D01*
X154604970Y-98875329D01*
X154613235Y-98898428D01*
X154619196Y-98922227D01*
X154622796Y-98946495D01*
X154624000Y-98970999D01*
X154624000Y-99621001D01*
X154622796Y-99645505D01*
X154619196Y-99669773D01*
X154613235Y-99693572D01*
X154604970Y-99716671D01*
X154594480Y-99738850D01*
X154581868Y-99759893D01*
X154567253Y-99779599D01*
X154550777Y-99797777D01*
X154532599Y-99814253D01*
X154512893Y-99828868D01*
X154491850Y-99841480D01*
X154469671Y-99851970D01*
X154446572Y-99860235D01*
X154422773Y-99866196D01*
X154398505Y-99869796D01*
X154374001Y-99871000D01*
X153473999Y-99871000D01*
X153449495Y-99869796D01*
X153425227Y-99866196D01*
X153401428Y-99860235D01*
X153378329Y-99851970D01*
X153356150Y-99841480D01*
X153335107Y-99828868D01*
X153315401Y-99814253D01*
X153297223Y-99797777D01*
X153280747Y-99779599D01*
X153266132Y-99759893D01*
X153253520Y-99738850D01*
X153243030Y-99716671D01*
X153234765Y-99693572D01*
X153228804Y-99669773D01*
X153225204Y-99645505D01*
X153224000Y-99621001D01*
X153224000Y-98970999D01*
X153225204Y-98946495D01*
X153228804Y-98922227D01*
X153234765Y-98898428D01*
X153243030Y-98875329D01*
X153253520Y-98853150D01*
X153266132Y-98832107D01*
X153280747Y-98812401D01*
X153297223Y-98794223D01*
X153315401Y-98777747D01*
X153335107Y-98763132D01*
X153356150Y-98750520D01*
X153378329Y-98740030D01*
X153401428Y-98731765D01*
X153425227Y-98725804D01*
X153449495Y-98722204D01*
X153473999Y-98721000D01*
X154374001Y-98721000D01*
X154398505Y-98722204D01*
X154398505Y-98722204D01*
G37*
D15*
X153924000Y-99296000D03*
G04 #@! TD*
D10*
G04 #@! TO.C,C1*
G36*
X146127505Y-100647204D02*
X146151773Y-100650804D01*
X146175572Y-100656765D01*
X146198671Y-100665030D01*
X146220850Y-100675520D01*
X146241893Y-100688132D01*
X146261599Y-100702747D01*
X146279777Y-100719223D01*
X146296253Y-100737401D01*
X146310868Y-100757107D01*
X146323480Y-100778150D01*
X146333970Y-100800329D01*
X146342235Y-100823428D01*
X146348196Y-100847227D01*
X146351796Y-100871495D01*
X146353000Y-100895999D01*
X146353000Y-101796001D01*
X146351796Y-101820505D01*
X146348196Y-101844773D01*
X146342235Y-101868572D01*
X146333970Y-101891671D01*
X146323480Y-101913850D01*
X146310868Y-101934893D01*
X146296253Y-101954599D01*
X146279777Y-101972777D01*
X146261599Y-101989253D01*
X146241893Y-102003868D01*
X146220850Y-102016480D01*
X146198671Y-102026970D01*
X146175572Y-102035235D01*
X146151773Y-102041196D01*
X146127505Y-102044796D01*
X146103001Y-102046000D01*
X145452999Y-102046000D01*
X145428495Y-102044796D01*
X145404227Y-102041196D01*
X145380428Y-102035235D01*
X145357329Y-102026970D01*
X145335150Y-102016480D01*
X145314107Y-102003868D01*
X145294401Y-101989253D01*
X145276223Y-101972777D01*
X145259747Y-101954599D01*
X145245132Y-101934893D01*
X145232520Y-101913850D01*
X145222030Y-101891671D01*
X145213765Y-101868572D01*
X145207804Y-101844773D01*
X145204204Y-101820505D01*
X145203000Y-101796001D01*
X145203000Y-100895999D01*
X145204204Y-100871495D01*
X145207804Y-100847227D01*
X145213765Y-100823428D01*
X145222030Y-100800329D01*
X145232520Y-100778150D01*
X145245132Y-100757107D01*
X145259747Y-100737401D01*
X145276223Y-100719223D01*
X145294401Y-100702747D01*
X145314107Y-100688132D01*
X145335150Y-100675520D01*
X145357329Y-100665030D01*
X145380428Y-100656765D01*
X145404227Y-100650804D01*
X145428495Y-100647204D01*
X145452999Y-100646000D01*
X146103001Y-100646000D01*
X146127505Y-100647204D01*
X146127505Y-100647204D01*
G37*
D15*
X145778000Y-101346000D03*
D10*
G36*
X148177505Y-100647204D02*
X148201773Y-100650804D01*
X148225572Y-100656765D01*
X148248671Y-100665030D01*
X148270850Y-100675520D01*
X148291893Y-100688132D01*
X148311599Y-100702747D01*
X148329777Y-100719223D01*
X148346253Y-100737401D01*
X148360868Y-100757107D01*
X148373480Y-100778150D01*
X148383970Y-100800329D01*
X148392235Y-100823428D01*
X148398196Y-100847227D01*
X148401796Y-100871495D01*
X148403000Y-100895999D01*
X148403000Y-101796001D01*
X148401796Y-101820505D01*
X148398196Y-101844773D01*
X148392235Y-101868572D01*
X148383970Y-101891671D01*
X148373480Y-101913850D01*
X148360868Y-101934893D01*
X148346253Y-101954599D01*
X148329777Y-101972777D01*
X148311599Y-101989253D01*
X148291893Y-102003868D01*
X148270850Y-102016480D01*
X148248671Y-102026970D01*
X148225572Y-102035235D01*
X148201773Y-102041196D01*
X148177505Y-102044796D01*
X148153001Y-102046000D01*
X147502999Y-102046000D01*
X147478495Y-102044796D01*
X147454227Y-102041196D01*
X147430428Y-102035235D01*
X147407329Y-102026970D01*
X147385150Y-102016480D01*
X147364107Y-102003868D01*
X147344401Y-101989253D01*
X147326223Y-101972777D01*
X147309747Y-101954599D01*
X147295132Y-101934893D01*
X147282520Y-101913850D01*
X147272030Y-101891671D01*
X147263765Y-101868572D01*
X147257804Y-101844773D01*
X147254204Y-101820505D01*
X147253000Y-101796001D01*
X147253000Y-100895999D01*
X147254204Y-100871495D01*
X147257804Y-100847227D01*
X147263765Y-100823428D01*
X147272030Y-100800329D01*
X147282520Y-100778150D01*
X147295132Y-100757107D01*
X147309747Y-100737401D01*
X147326223Y-100719223D01*
X147344401Y-100702747D01*
X147364107Y-100688132D01*
X147385150Y-100675520D01*
X147407329Y-100665030D01*
X147430428Y-100656765D01*
X147454227Y-100650804D01*
X147478495Y-100647204D01*
X147502999Y-100646000D01*
X148153001Y-100646000D01*
X148177505Y-100647204D01*
X148177505Y-100647204D01*
G37*
D15*
X147828000Y-101346000D03*
G04 #@! TD*
D16*
G04 #@! TO.C,U2*
X149926000Y-98976000D03*
X151826000Y-98976000D03*
X151826000Y-101176000D03*
X150876000Y-101176000D03*
X149926000Y-101176000D03*
G04 #@! TD*
M02*
