G04 #@! TF.GenerationSoftware,KiCad,Pcbnew,5.0.2+dfsg1-1*
G04 #@! TF.CreationDate,2021-08-23T09:22:29-10:00*
G04 #@! TF.ProjectId,watchy-scd40,77617463-6879-42d7-9363-6434302e6b69,rev?*
G04 #@! TF.SameCoordinates,Original*
G04 #@! TF.FileFunction,Legend,Bot*
G04 #@! TF.FilePolarity,Positive*
%FSLAX46Y46*%
G04 Gerber Fmt 4.6, Leading zero omitted, Abs format (unit mm)*
G04 Created by KiCad (PCBNEW 5.0.2+dfsg1-1) date Mon 23 Aug 2021 09:22:29 AM HST*
%MOMM*%
%LPD*%
G01*
G04 APERTURE LIST*
%ADD10C,0.200000*%
%ADD11C,0.120000*%
%ADD12R,1.600000X1.100000*%
%ADD13C,0.500000*%
%ADD14C,0.100000*%
G04 APERTURE END LIST*
D10*
X151058333Y-90185142D02*
X151105952Y-90232761D01*
X151248809Y-90280380D01*
X151344047Y-90280380D01*
X151486904Y-90232761D01*
X151582142Y-90137523D01*
X151629761Y-90042285D01*
X151677380Y-89851809D01*
X151677380Y-89708952D01*
X151629761Y-89518476D01*
X151582142Y-89423238D01*
X151486904Y-89328000D01*
X151344047Y-89280380D01*
X151248809Y-89280380D01*
X151105952Y-89328000D01*
X151058333Y-89375619D01*
X150677380Y-90232761D02*
X150534523Y-90280380D01*
X150296428Y-90280380D01*
X150201190Y-90232761D01*
X150153571Y-90185142D01*
X150105952Y-90089904D01*
X150105952Y-89994666D01*
X150153571Y-89899428D01*
X150201190Y-89851809D01*
X150296428Y-89804190D01*
X150486904Y-89756571D01*
X150582142Y-89708952D01*
X150629761Y-89661333D01*
X150677380Y-89566095D01*
X150677380Y-89470857D01*
X150629761Y-89375619D01*
X150582142Y-89328000D01*
X150486904Y-89280380D01*
X150248809Y-89280380D01*
X150105952Y-89328000D01*
X149725000Y-89994666D02*
X149248809Y-89994666D01*
X149820238Y-90280380D02*
X149486904Y-89280380D01*
X149153571Y-90280380D01*
X148153571Y-89613714D02*
X147915476Y-90280380D01*
X147677380Y-89613714D01*
X147344047Y-89375619D02*
X147296428Y-89328000D01*
X147201190Y-89280380D01*
X146963095Y-89280380D01*
X146867857Y-89328000D01*
X146820238Y-89375619D01*
X146772619Y-89470857D01*
X146772619Y-89566095D01*
X146820238Y-89708952D01*
X147391666Y-90280380D01*
X146772619Y-90280380D01*
X152844047Y-91075619D02*
X152796428Y-91028000D01*
X152701190Y-90980380D01*
X152463095Y-90980380D01*
X152367857Y-91028000D01*
X152320238Y-91075619D01*
X152272619Y-91170857D01*
X152272619Y-91266095D01*
X152320238Y-91408952D01*
X152891666Y-91980380D01*
X152272619Y-91980380D01*
X151653571Y-90980380D02*
X151558333Y-90980380D01*
X151463095Y-91028000D01*
X151415476Y-91075619D01*
X151367857Y-91170857D01*
X151320238Y-91361333D01*
X151320238Y-91599428D01*
X151367857Y-91789904D01*
X151415476Y-91885142D01*
X151463095Y-91932761D01*
X151558333Y-91980380D01*
X151653571Y-91980380D01*
X151748809Y-91932761D01*
X151796428Y-91885142D01*
X151844047Y-91789904D01*
X151891666Y-91599428D01*
X151891666Y-91361333D01*
X151844047Y-91170857D01*
X151796428Y-91075619D01*
X151748809Y-91028000D01*
X151653571Y-90980380D01*
X150939285Y-91075619D02*
X150891666Y-91028000D01*
X150796428Y-90980380D01*
X150558333Y-90980380D01*
X150463095Y-91028000D01*
X150415476Y-91075619D01*
X150367857Y-91170857D01*
X150367857Y-91266095D01*
X150415476Y-91408952D01*
X150986904Y-91980380D01*
X150367857Y-91980380D01*
X149415476Y-91980380D02*
X149986904Y-91980380D01*
X149701190Y-91980380D02*
X149701190Y-90980380D01*
X149796428Y-91123238D01*
X149891666Y-91218476D01*
X149986904Y-91266095D01*
X148796428Y-90980380D02*
X148701190Y-90980380D01*
X148605952Y-91028000D01*
X148558333Y-91075619D01*
X148510714Y-91170857D01*
X148463095Y-91361333D01*
X148463095Y-91599428D01*
X148510714Y-91789904D01*
X148558333Y-91885142D01*
X148605952Y-91932761D01*
X148701190Y-91980380D01*
X148796428Y-91980380D01*
X148891666Y-91932761D01*
X148939285Y-91885142D01*
X148986904Y-91789904D01*
X149034523Y-91599428D01*
X149034523Y-91361333D01*
X148986904Y-91170857D01*
X148939285Y-91075619D01*
X148891666Y-91028000D01*
X148796428Y-90980380D01*
X147891666Y-91408952D02*
X147986904Y-91361333D01*
X148034523Y-91313714D01*
X148082142Y-91218476D01*
X148082142Y-91170857D01*
X148034523Y-91075619D01*
X147986904Y-91028000D01*
X147891666Y-90980380D01*
X147701190Y-90980380D01*
X147605952Y-91028000D01*
X147558333Y-91075619D01*
X147510714Y-91170857D01*
X147510714Y-91218476D01*
X147558333Y-91313714D01*
X147605952Y-91361333D01*
X147701190Y-91408952D01*
X147891666Y-91408952D01*
X147986904Y-91456571D01*
X148034523Y-91504190D01*
X148082142Y-91599428D01*
X148082142Y-91789904D01*
X148034523Y-91885142D01*
X147986904Y-91932761D01*
X147891666Y-91980380D01*
X147701190Y-91980380D01*
X147605952Y-91932761D01*
X147558333Y-91885142D01*
X147510714Y-91789904D01*
X147510714Y-91599428D01*
X147558333Y-91504190D01*
X147605952Y-91456571D01*
X147701190Y-91408952D01*
X147129761Y-91075619D02*
X147082142Y-91028000D01*
X146986904Y-90980380D01*
X146748809Y-90980380D01*
X146653571Y-91028000D01*
X146605952Y-91075619D01*
X146558333Y-91170857D01*
X146558333Y-91266095D01*
X146605952Y-91408952D01*
X147177380Y-91980380D01*
X146558333Y-91980380D01*
X146225000Y-90980380D02*
X145605952Y-90980380D01*
X145939285Y-91361333D01*
X145796428Y-91361333D01*
X145701190Y-91408952D01*
X145653571Y-91456571D01*
X145605952Y-91551809D01*
X145605952Y-91789904D01*
X145653571Y-91885142D01*
X145701190Y-91932761D01*
X145796428Y-91980380D01*
X146082142Y-91980380D01*
X146177380Y-91932761D01*
X146225000Y-91885142D01*
X152224666Y-94046476D02*
X152224666Y-94522666D01*
X152510380Y-93951238D02*
X151510380Y-94284571D01*
X152510380Y-94617904D01*
X152510380Y-95427428D02*
X152510380Y-94951238D01*
X151510380Y-94951238D01*
X151510380Y-95665523D02*
X152510380Y-95903619D01*
X151796095Y-96094095D01*
X152510380Y-96284571D01*
X151510380Y-96522666D01*
X152224666Y-96856000D02*
X152224666Y-97332190D01*
X152510380Y-96760761D02*
X151510380Y-97094095D01*
X152510380Y-97427428D01*
X152034190Y-97951238D02*
X152510380Y-97951238D01*
X151510380Y-97617904D02*
X152034190Y-97951238D01*
X151510380Y-98284571D01*
X152462761Y-98570285D02*
X152510380Y-98713142D01*
X152510380Y-98951238D01*
X152462761Y-99046476D01*
X152415142Y-99094095D01*
X152319904Y-99141714D01*
X152224666Y-99141714D01*
X152129428Y-99094095D01*
X152081809Y-99046476D01*
X152034190Y-98951238D01*
X151986571Y-98760761D01*
X151938952Y-98665523D01*
X151891333Y-98617904D01*
X151796095Y-98570285D01*
X151700857Y-98570285D01*
X151605619Y-98617904D01*
X151558000Y-98665523D01*
X151510380Y-98760761D01*
X151510380Y-98998857D01*
X151558000Y-99141714D01*
X153210380Y-94284571D02*
X153210380Y-94475047D01*
X153258000Y-94570285D01*
X153353238Y-94665523D01*
X153543714Y-94713142D01*
X153877047Y-94713142D01*
X154067523Y-94665523D01*
X154162761Y-94570285D01*
X154210380Y-94475047D01*
X154210380Y-94284571D01*
X154162761Y-94189333D01*
X154067523Y-94094095D01*
X153877047Y-94046476D01*
X153543714Y-94046476D01*
X153353238Y-94094095D01*
X153258000Y-94189333D01*
X153210380Y-94284571D01*
X154210380Y-95141714D02*
X153210380Y-95141714D01*
X154210380Y-95713142D01*
X153210380Y-95713142D01*
X146518380Y-92988095D02*
X147327904Y-92988095D01*
X147423142Y-93035714D01*
X147470761Y-93083333D01*
X147518380Y-93178571D01*
X147518380Y-93369047D01*
X147470761Y-93464285D01*
X147423142Y-93511904D01*
X147327904Y-93559523D01*
X146518380Y-93559523D01*
X147518380Y-94035714D02*
X146518380Y-94035714D01*
X147518380Y-94607142D01*
X146518380Y-94607142D01*
X147518380Y-95654761D02*
X147042190Y-95321428D01*
X147518380Y-95083333D02*
X146518380Y-95083333D01*
X146518380Y-95464285D01*
X146566000Y-95559523D01*
X146613619Y-95607142D01*
X146708857Y-95654761D01*
X146851714Y-95654761D01*
X146946952Y-95607142D01*
X146994571Y-95559523D01*
X147042190Y-95464285D01*
X147042190Y-95083333D01*
X146994571Y-96083333D02*
X146994571Y-96416666D01*
X147518380Y-96559523D02*
X147518380Y-96083333D01*
X146518380Y-96083333D01*
X146518380Y-96559523D01*
X146566000Y-97511904D02*
X146518380Y-97416666D01*
X146518380Y-97273809D01*
X146566000Y-97130952D01*
X146661238Y-97035714D01*
X146756476Y-96988095D01*
X146946952Y-96940476D01*
X147089809Y-96940476D01*
X147280285Y-96988095D01*
X147375523Y-97035714D01*
X147470761Y-97130952D01*
X147518380Y-97273809D01*
X147518380Y-97369047D01*
X147470761Y-97511904D01*
X147423142Y-97559523D01*
X147089809Y-97559523D01*
X147089809Y-97369047D01*
X147518380Y-102863714D02*
X147042190Y-102597047D01*
X147518380Y-102406571D02*
X146518380Y-102406571D01*
X146518380Y-102711333D01*
X146566000Y-102787523D01*
X146613619Y-102825619D01*
X146708857Y-102863714D01*
X146851714Y-102863714D01*
X146946952Y-102825619D01*
X146994571Y-102787523D01*
X147042190Y-102711333D01*
X147042190Y-102406571D01*
X146994571Y-103206571D02*
X146994571Y-103473238D01*
X147518380Y-103587523D02*
X147518380Y-103206571D01*
X146518380Y-103206571D01*
X146518380Y-103587523D01*
X146566000Y-104349428D02*
X146518380Y-104273238D01*
X146518380Y-104158952D01*
X146566000Y-104044666D01*
X146661238Y-103968476D01*
X146756476Y-103930380D01*
X146946952Y-103892285D01*
X147089809Y-103892285D01*
X147280285Y-103930380D01*
X147375523Y-103968476D01*
X147470761Y-104044666D01*
X147518380Y-104158952D01*
X147518380Y-104235142D01*
X147470761Y-104349428D01*
X147423142Y-104387523D01*
X147089809Y-104387523D01*
X147089809Y-104235142D01*
X151646000Y-100885809D02*
X151598380Y-100790571D01*
X151598380Y-100647714D01*
X151646000Y-100504857D01*
X151741238Y-100409619D01*
X151836476Y-100362000D01*
X152026952Y-100314380D01*
X152169809Y-100314380D01*
X152360285Y-100362000D01*
X152455523Y-100409619D01*
X152550761Y-100504857D01*
X152598380Y-100647714D01*
X152598380Y-100742952D01*
X152550761Y-100885809D01*
X152503142Y-100933428D01*
X152169809Y-100933428D01*
X152169809Y-100742952D01*
X152598380Y-101362000D02*
X151598380Y-101362000D01*
X151598380Y-101742952D01*
X151646000Y-101838190D01*
X151693619Y-101885809D01*
X151788857Y-101933428D01*
X151931714Y-101933428D01*
X152026952Y-101885809D01*
X152074571Y-101838190D01*
X152122190Y-101742952D01*
X152122190Y-101362000D01*
X152598380Y-102362000D02*
X151598380Y-102362000D01*
X151598380Y-103028666D02*
X151598380Y-103219142D01*
X151646000Y-103314380D01*
X151741238Y-103409619D01*
X151931714Y-103457238D01*
X152265047Y-103457238D01*
X152455523Y-103409619D01*
X152550761Y-103314380D01*
X152598380Y-103219142D01*
X152598380Y-103028666D01*
X152550761Y-102933428D01*
X152455523Y-102838190D01*
X152265047Y-102790571D01*
X151931714Y-102790571D01*
X151741238Y-102838190D01*
X151646000Y-102933428D01*
X151598380Y-103028666D01*
X151598380Y-104076285D02*
X151598380Y-104171523D01*
X151646000Y-104266761D01*
X151693619Y-104314380D01*
X151788857Y-104362000D01*
X151979333Y-104409619D01*
X152217428Y-104409619D01*
X152407904Y-104362000D01*
X152503142Y-104314380D01*
X152550761Y-104266761D01*
X152598380Y-104171523D01*
X152598380Y-104076285D01*
X152550761Y-103981047D01*
X152503142Y-103933428D01*
X152407904Y-103885809D01*
X152217428Y-103838190D01*
X151979333Y-103838190D01*
X151788857Y-103885809D01*
X151693619Y-103933428D01*
X151646000Y-103981047D01*
X151598380Y-104076285D01*
D11*
G04 #@! TO.C,JP2*
X149306000Y-97996000D02*
G75*
G03X148606000Y-98696000I0J-700000D01*
G01*
X150606000Y-98696000D02*
G75*
G03X149906000Y-97996000I-700000J0D01*
G01*
X149906000Y-102096000D02*
G75*
G03X150606000Y-101396000I0J700000D01*
G01*
X148606000Y-101396000D02*
G75*
G03X149306000Y-102096000I700000J0D01*
G01*
X148606000Y-98646000D02*
X148606000Y-101446000D01*
X149306000Y-102096000D02*
X149906000Y-102096000D01*
X150606000Y-101446000D02*
X150606000Y-98646000D01*
X149906000Y-97996000D02*
X149306000Y-97996000D01*
X150806000Y-98846000D02*
X151106000Y-98546000D01*
X151106000Y-98546000D02*
X151106000Y-99146000D01*
X150806000Y-98846000D02*
X151106000Y-99146000D01*
G04 #@! TO.C,JP1*
X146766000Y-97996000D02*
G75*
G03X146066000Y-98696000I0J-700000D01*
G01*
X148066000Y-98696000D02*
G75*
G03X147366000Y-97996000I-700000J0D01*
G01*
X147366000Y-102096000D02*
G75*
G03X148066000Y-101396000I0J700000D01*
G01*
X146066000Y-101396000D02*
G75*
G03X146766000Y-102096000I700000J0D01*
G01*
X146066000Y-98646000D02*
X146066000Y-101446000D01*
X146766000Y-102096000D02*
X147366000Y-102096000D01*
X148066000Y-101446000D02*
X148066000Y-98646000D01*
X147366000Y-97996000D02*
X146766000Y-97996000D01*
X148266000Y-98846000D02*
X148566000Y-98546000D01*
X148566000Y-98546000D02*
X148566000Y-99146000D01*
X148266000Y-98846000D02*
X148566000Y-99146000D01*
G04 #@! TD*
%LPC*%
D12*
G04 #@! TO.C,JP2*
X149606000Y-100046000D03*
D13*
X149606000Y-101346000D03*
D14*
G36*
X150405398Y-101352111D02*
X150405398Y-101370534D01*
X150405157Y-101375435D01*
X150400347Y-101424266D01*
X150399627Y-101429119D01*
X150390055Y-101477244D01*
X150388863Y-101482005D01*
X150374619Y-101528960D01*
X150372966Y-101533579D01*
X150354189Y-101578912D01*
X150352091Y-101583349D01*
X150328960Y-101626622D01*
X150326438Y-101630829D01*
X150299178Y-101671628D01*
X150296254Y-101675570D01*
X150265126Y-101713499D01*
X150261831Y-101717134D01*
X150227134Y-101751831D01*
X150223499Y-101755126D01*
X150185570Y-101786254D01*
X150181628Y-101789178D01*
X150140829Y-101816438D01*
X150136622Y-101818960D01*
X150093349Y-101842091D01*
X150088912Y-101844189D01*
X150043579Y-101862966D01*
X150038960Y-101864619D01*
X149992005Y-101878863D01*
X149987244Y-101880055D01*
X149939119Y-101889627D01*
X149934266Y-101890347D01*
X149885435Y-101895157D01*
X149880534Y-101895398D01*
X149862111Y-101895398D01*
X149856000Y-101896000D01*
X149356000Y-101896000D01*
X149349889Y-101895398D01*
X149331466Y-101895398D01*
X149326565Y-101895157D01*
X149277734Y-101890347D01*
X149272881Y-101889627D01*
X149224756Y-101880055D01*
X149219995Y-101878863D01*
X149173040Y-101864619D01*
X149168421Y-101862966D01*
X149123088Y-101844189D01*
X149118651Y-101842091D01*
X149075378Y-101818960D01*
X149071171Y-101816438D01*
X149030372Y-101789178D01*
X149026430Y-101786254D01*
X148988501Y-101755126D01*
X148984866Y-101751831D01*
X148950169Y-101717134D01*
X148946874Y-101713499D01*
X148915746Y-101675570D01*
X148912822Y-101671628D01*
X148885562Y-101630829D01*
X148883040Y-101626622D01*
X148859909Y-101583349D01*
X148857811Y-101578912D01*
X148839034Y-101533579D01*
X148837381Y-101528960D01*
X148823137Y-101482005D01*
X148821945Y-101477244D01*
X148812373Y-101429119D01*
X148811653Y-101424266D01*
X148806843Y-101375435D01*
X148806602Y-101370534D01*
X148806602Y-101352111D01*
X148806000Y-101346000D01*
X148806000Y-100796000D01*
X148806961Y-100786245D01*
X148809806Y-100776866D01*
X148814427Y-100768221D01*
X148820645Y-100760645D01*
X148828221Y-100754427D01*
X148836866Y-100749806D01*
X148846245Y-100746961D01*
X148856000Y-100746000D01*
X150356000Y-100746000D01*
X150365755Y-100746961D01*
X150375134Y-100749806D01*
X150383779Y-100754427D01*
X150391355Y-100760645D01*
X150397573Y-100768221D01*
X150402194Y-100776866D01*
X150405039Y-100786245D01*
X150406000Y-100796000D01*
X150406000Y-101346000D01*
X150405398Y-101352111D01*
X150405398Y-101352111D01*
G37*
D13*
X149606000Y-98746000D03*
D14*
G36*
X150405039Y-99305755D02*
X150402194Y-99315134D01*
X150397573Y-99323779D01*
X150391355Y-99331355D01*
X150383779Y-99337573D01*
X150375134Y-99342194D01*
X150365755Y-99345039D01*
X150356000Y-99346000D01*
X150256000Y-99346000D01*
X150256000Y-99646000D01*
X150255039Y-99655755D01*
X150252194Y-99665134D01*
X150247573Y-99673779D01*
X150241355Y-99681355D01*
X150233779Y-99687573D01*
X150225134Y-99692194D01*
X150215755Y-99695039D01*
X150206000Y-99696000D01*
X149806000Y-99696000D01*
X149796245Y-99695039D01*
X149786866Y-99692194D01*
X149778221Y-99687573D01*
X149770645Y-99681355D01*
X149764427Y-99673779D01*
X149759806Y-99665134D01*
X149756961Y-99655755D01*
X149756000Y-99646000D01*
X149756000Y-99346000D01*
X149456000Y-99346000D01*
X149456000Y-99646000D01*
X149455039Y-99655755D01*
X149452194Y-99665134D01*
X149447573Y-99673779D01*
X149441355Y-99681355D01*
X149433779Y-99687573D01*
X149425134Y-99692194D01*
X149415755Y-99695039D01*
X149406000Y-99696000D01*
X149006000Y-99696000D01*
X148996245Y-99695039D01*
X148986866Y-99692194D01*
X148978221Y-99687573D01*
X148970645Y-99681355D01*
X148964427Y-99673779D01*
X148959806Y-99665134D01*
X148956961Y-99655755D01*
X148956000Y-99646000D01*
X148956000Y-99346000D01*
X148856000Y-99346000D01*
X148846245Y-99345039D01*
X148836866Y-99342194D01*
X148828221Y-99337573D01*
X148820645Y-99331355D01*
X148814427Y-99323779D01*
X148809806Y-99315134D01*
X148806961Y-99305755D01*
X148806000Y-99296000D01*
X148806000Y-98746000D01*
X148806602Y-98739889D01*
X148806602Y-98721466D01*
X148806843Y-98716565D01*
X148811653Y-98667734D01*
X148812373Y-98662881D01*
X148821945Y-98614756D01*
X148823137Y-98609995D01*
X148837381Y-98563040D01*
X148839034Y-98558421D01*
X148857811Y-98513088D01*
X148859909Y-98508651D01*
X148883040Y-98465378D01*
X148885562Y-98461171D01*
X148912822Y-98420372D01*
X148915746Y-98416430D01*
X148946874Y-98378501D01*
X148950169Y-98374866D01*
X148984866Y-98340169D01*
X148988501Y-98336874D01*
X149026430Y-98305746D01*
X149030372Y-98302822D01*
X149071171Y-98275562D01*
X149075378Y-98273040D01*
X149118651Y-98249909D01*
X149123088Y-98247811D01*
X149168421Y-98229034D01*
X149173040Y-98227381D01*
X149219995Y-98213137D01*
X149224756Y-98211945D01*
X149272881Y-98202373D01*
X149277734Y-98201653D01*
X149326565Y-98196843D01*
X149331466Y-98196602D01*
X149349889Y-98196602D01*
X149356000Y-98196000D01*
X149856000Y-98196000D01*
X149862111Y-98196602D01*
X149880534Y-98196602D01*
X149885435Y-98196843D01*
X149934266Y-98201653D01*
X149939119Y-98202373D01*
X149987244Y-98211945D01*
X149992005Y-98213137D01*
X150038960Y-98227381D01*
X150043579Y-98229034D01*
X150088912Y-98247811D01*
X150093349Y-98249909D01*
X150136622Y-98273040D01*
X150140829Y-98275562D01*
X150181628Y-98302822D01*
X150185570Y-98305746D01*
X150223499Y-98336874D01*
X150227134Y-98340169D01*
X150261831Y-98374866D01*
X150265126Y-98378501D01*
X150296254Y-98416430D01*
X150299178Y-98420372D01*
X150326438Y-98461171D01*
X150328960Y-98465378D01*
X150352091Y-98508651D01*
X150354189Y-98513088D01*
X150372966Y-98558421D01*
X150374619Y-98563040D01*
X150388863Y-98609995D01*
X150390055Y-98614756D01*
X150399627Y-98662881D01*
X150400347Y-98667734D01*
X150405157Y-98716565D01*
X150405398Y-98721466D01*
X150405398Y-98739889D01*
X150406000Y-98746000D01*
X150406000Y-99296000D01*
X150405039Y-99305755D01*
X150405039Y-99305755D01*
G37*
G04 #@! TD*
D12*
G04 #@! TO.C,JP1*
X147066000Y-100046000D03*
D13*
X147066000Y-101346000D03*
D14*
G36*
X147865398Y-101352111D02*
X147865398Y-101370534D01*
X147865157Y-101375435D01*
X147860347Y-101424266D01*
X147859627Y-101429119D01*
X147850055Y-101477244D01*
X147848863Y-101482005D01*
X147834619Y-101528960D01*
X147832966Y-101533579D01*
X147814189Y-101578912D01*
X147812091Y-101583349D01*
X147788960Y-101626622D01*
X147786438Y-101630829D01*
X147759178Y-101671628D01*
X147756254Y-101675570D01*
X147725126Y-101713499D01*
X147721831Y-101717134D01*
X147687134Y-101751831D01*
X147683499Y-101755126D01*
X147645570Y-101786254D01*
X147641628Y-101789178D01*
X147600829Y-101816438D01*
X147596622Y-101818960D01*
X147553349Y-101842091D01*
X147548912Y-101844189D01*
X147503579Y-101862966D01*
X147498960Y-101864619D01*
X147452005Y-101878863D01*
X147447244Y-101880055D01*
X147399119Y-101889627D01*
X147394266Y-101890347D01*
X147345435Y-101895157D01*
X147340534Y-101895398D01*
X147322111Y-101895398D01*
X147316000Y-101896000D01*
X146816000Y-101896000D01*
X146809889Y-101895398D01*
X146791466Y-101895398D01*
X146786565Y-101895157D01*
X146737734Y-101890347D01*
X146732881Y-101889627D01*
X146684756Y-101880055D01*
X146679995Y-101878863D01*
X146633040Y-101864619D01*
X146628421Y-101862966D01*
X146583088Y-101844189D01*
X146578651Y-101842091D01*
X146535378Y-101818960D01*
X146531171Y-101816438D01*
X146490372Y-101789178D01*
X146486430Y-101786254D01*
X146448501Y-101755126D01*
X146444866Y-101751831D01*
X146410169Y-101717134D01*
X146406874Y-101713499D01*
X146375746Y-101675570D01*
X146372822Y-101671628D01*
X146345562Y-101630829D01*
X146343040Y-101626622D01*
X146319909Y-101583349D01*
X146317811Y-101578912D01*
X146299034Y-101533579D01*
X146297381Y-101528960D01*
X146283137Y-101482005D01*
X146281945Y-101477244D01*
X146272373Y-101429119D01*
X146271653Y-101424266D01*
X146266843Y-101375435D01*
X146266602Y-101370534D01*
X146266602Y-101352111D01*
X146266000Y-101346000D01*
X146266000Y-100796000D01*
X146266961Y-100786245D01*
X146269806Y-100776866D01*
X146274427Y-100768221D01*
X146280645Y-100760645D01*
X146288221Y-100754427D01*
X146296866Y-100749806D01*
X146306245Y-100746961D01*
X146316000Y-100746000D01*
X147816000Y-100746000D01*
X147825755Y-100746961D01*
X147835134Y-100749806D01*
X147843779Y-100754427D01*
X147851355Y-100760645D01*
X147857573Y-100768221D01*
X147862194Y-100776866D01*
X147865039Y-100786245D01*
X147866000Y-100796000D01*
X147866000Y-101346000D01*
X147865398Y-101352111D01*
X147865398Y-101352111D01*
G37*
D13*
X147066000Y-98746000D03*
D14*
G36*
X147865039Y-99305755D02*
X147862194Y-99315134D01*
X147857573Y-99323779D01*
X147851355Y-99331355D01*
X147843779Y-99337573D01*
X147835134Y-99342194D01*
X147825755Y-99345039D01*
X147816000Y-99346000D01*
X147716000Y-99346000D01*
X147716000Y-99646000D01*
X147715039Y-99655755D01*
X147712194Y-99665134D01*
X147707573Y-99673779D01*
X147701355Y-99681355D01*
X147693779Y-99687573D01*
X147685134Y-99692194D01*
X147675755Y-99695039D01*
X147666000Y-99696000D01*
X147266000Y-99696000D01*
X147256245Y-99695039D01*
X147246866Y-99692194D01*
X147238221Y-99687573D01*
X147230645Y-99681355D01*
X147224427Y-99673779D01*
X147219806Y-99665134D01*
X147216961Y-99655755D01*
X147216000Y-99646000D01*
X147216000Y-99346000D01*
X146916000Y-99346000D01*
X146916000Y-99646000D01*
X146915039Y-99655755D01*
X146912194Y-99665134D01*
X146907573Y-99673779D01*
X146901355Y-99681355D01*
X146893779Y-99687573D01*
X146885134Y-99692194D01*
X146875755Y-99695039D01*
X146866000Y-99696000D01*
X146466000Y-99696000D01*
X146456245Y-99695039D01*
X146446866Y-99692194D01*
X146438221Y-99687573D01*
X146430645Y-99681355D01*
X146424427Y-99673779D01*
X146419806Y-99665134D01*
X146416961Y-99655755D01*
X146416000Y-99646000D01*
X146416000Y-99346000D01*
X146316000Y-99346000D01*
X146306245Y-99345039D01*
X146296866Y-99342194D01*
X146288221Y-99337573D01*
X146280645Y-99331355D01*
X146274427Y-99323779D01*
X146269806Y-99315134D01*
X146266961Y-99305755D01*
X146266000Y-99296000D01*
X146266000Y-98746000D01*
X146266602Y-98739889D01*
X146266602Y-98721466D01*
X146266843Y-98716565D01*
X146271653Y-98667734D01*
X146272373Y-98662881D01*
X146281945Y-98614756D01*
X146283137Y-98609995D01*
X146297381Y-98563040D01*
X146299034Y-98558421D01*
X146317811Y-98513088D01*
X146319909Y-98508651D01*
X146343040Y-98465378D01*
X146345562Y-98461171D01*
X146372822Y-98420372D01*
X146375746Y-98416430D01*
X146406874Y-98378501D01*
X146410169Y-98374866D01*
X146444866Y-98340169D01*
X146448501Y-98336874D01*
X146486430Y-98305746D01*
X146490372Y-98302822D01*
X146531171Y-98275562D01*
X146535378Y-98273040D01*
X146578651Y-98249909D01*
X146583088Y-98247811D01*
X146628421Y-98229034D01*
X146633040Y-98227381D01*
X146679995Y-98213137D01*
X146684756Y-98211945D01*
X146732881Y-98202373D01*
X146737734Y-98201653D01*
X146786565Y-98196843D01*
X146791466Y-98196602D01*
X146809889Y-98196602D01*
X146816000Y-98196000D01*
X147316000Y-98196000D01*
X147322111Y-98196602D01*
X147340534Y-98196602D01*
X147345435Y-98196843D01*
X147394266Y-98201653D01*
X147399119Y-98202373D01*
X147447244Y-98211945D01*
X147452005Y-98213137D01*
X147498960Y-98227381D01*
X147503579Y-98229034D01*
X147548912Y-98247811D01*
X147553349Y-98249909D01*
X147596622Y-98273040D01*
X147600829Y-98275562D01*
X147641628Y-98302822D01*
X147645570Y-98305746D01*
X147683499Y-98336874D01*
X147687134Y-98340169D01*
X147721831Y-98374866D01*
X147725126Y-98378501D01*
X147756254Y-98416430D01*
X147759178Y-98420372D01*
X147786438Y-98461171D01*
X147788960Y-98465378D01*
X147812091Y-98508651D01*
X147814189Y-98513088D01*
X147832966Y-98558421D01*
X147834619Y-98563040D01*
X147848863Y-98609995D01*
X147850055Y-98614756D01*
X147859627Y-98662881D01*
X147860347Y-98667734D01*
X147865157Y-98716565D01*
X147865398Y-98721466D01*
X147865398Y-98739889D01*
X147866000Y-98746000D01*
X147866000Y-99296000D01*
X147865039Y-99305755D01*
X147865039Y-99305755D01*
G37*
G04 #@! TD*
M02*
